<svg width="56" height="57" viewBox="0 0 56 57" fill="none" xmlns="http://www.w3.org/2000/svg">
<path d="M21.1697 48.5512C19.6137 48.0281 18.1345 47.3306 16.7604 46.4831C16.5462 46.3493 16.332 46.2114 16.1218 46.0695C12.9128 43.9324 10.3141 40.952 8.62875 37.4484C8.52367 37.2254 8.41859 37.0064 8.32159 36.7793L6.806 46.4587C6.91917 46.5885 7.03233 46.7183 7.15358 46.848C7.9134 47.6996 8.72979 48.5106 9.59065 49.2689C9.73614 49.3946 9.88568 49.5203 10.0352 49.646L17.5768 49.1797L17.3949 48.7864L17.8274 48.758L21.1697 48.5512ZM12.254 13.2519L12.2379 13.4384C12.3187 13.3492 12.4036 13.26 12.4885 13.1708L12.254 13.2519ZM7.18187 22.7124L4.41339 27.6109L4.65993 27.988L4.43764 28.3854L6.87875 32.1039C6.81813 31.7795 6.76155 31.451 6.71709 31.1225C6.57968 30.129 6.50693 29.1234 6.50693 28.0934C6.50693 26.7147 6.63626 25.3644 6.88279 24.0586C6.96767 23.6045 7.06871 23.1544 7.18187 22.7124ZM21.1697 48.5512C19.6137 48.0281 18.1345 47.3306 16.7604 46.4831C16.5462 46.3493 16.332 46.2114 16.1218 46.0695C12.9128 43.9324 10.3141 40.952 8.62875 37.4484C8.52367 37.2254 8.41859 37.0064 8.32159 36.7793L6.806 46.4587C6.91917 46.5885 7.03233 46.7183 7.15358 46.848C7.9134 47.6996 8.72979 48.5106 9.59065 49.2689C9.73614 49.3946 9.88568 49.5203 10.0352 49.646L17.5768 49.1797L17.3949 48.7864L17.8274 48.758L21.1697 48.5512ZM12.254 13.2519L12.2379 13.4384C12.3187 13.3492 12.4036 13.26 12.4885 13.1708L12.254 13.2519ZM7.18187 22.7124L4.41339 27.6109L4.65993 27.988L4.43764 28.3854L6.87875 32.1039C6.81813 31.7795 6.76155 31.451 6.71709 31.1225C6.57968 30.129 6.50693 29.1234 6.50693 28.0934C6.50693 26.7147 6.63626 25.3644 6.88279 24.0586C6.96767 23.6045 7.06871 23.1544 7.18187 22.7124ZM21.1697 48.5512C19.6137 48.0281 18.1345 47.3306 16.7604 46.4831C16.5462 46.3493 16.332 46.2114 16.1218 46.0695C12.9128 43.9324 10.3141 40.952 8.62875 37.4484C8.52367 37.2254 8.41859 37.0064 8.32159 36.7793L6.806 46.4587C6.91917 46.5885 7.03233 46.7183 7.15358 46.848C7.9134 47.6996 8.72979 48.5106 9.59065 49.2689C9.73614 49.3946 9.88568 49.5203 10.0352 49.646L17.5768 49.1797L17.3949 48.7864L17.8274 48.758L21.1697 48.5512ZM6.71709 31.1185C6.57968 30.129 6.50693 29.1234 6.50693 28.0934C6.50693 26.7147 6.63626 25.3644 6.88279 24.0586L4.65993 27.988L4.43764 28.3854L6.87875 32.1039C6.81813 31.7795 6.76155 31.451 6.71709 31.1225V31.1185ZM16.7604 46.4831C16.5462 46.3493 16.332 46.2114 16.1218 46.0695C12.9128 43.9324 10.3141 40.952 8.62875 37.4484L7.15358 46.848C7.9134 47.6996 8.72979 48.5106 9.59065 49.2689L17.3949 48.7864L17.8274 48.758L21.1697 48.5512C19.6137 48.0281 18.1345 47.3306 16.7604 46.4831ZM6.88279 24.0586L4.65993 27.988L6.71709 31.1185C6.57968 30.129 6.50693 29.1234 6.50693 28.0934C6.50693 26.7147 6.63626 25.3644 6.88279 24.0586ZM16.7604 46.4831L17.8274 48.758L21.1697 48.5512C19.6137 48.0281 18.1345 47.3306 16.7604 46.4831ZM6.88279 24.0586L4.65993 27.988L6.71709 31.1185C6.57968 30.129 6.50693 29.1234 6.50693 28.0934C6.50693 26.7147 6.63626 25.3644 6.88279 24.0586ZM28 49.6622C27.7939 49.6622 27.5878 49.6582 27.3857 49.6501L36.4671 54.8852H36.4711C37.4451 54.5729 38.3909 54.212 39.3124 53.8024L39.7125 46.1789C36.3458 48.3849 32.3245 49.6622 28 49.6622ZM16.7604 46.4831L17.8274 48.758L21.1697 48.5512C19.6137 48.0281 18.1345 47.3306 16.7604 46.4831ZM6.88279 24.0586L4.65993 27.988L6.71709 31.1185C6.57968 30.129 6.50693 29.1234 6.50693 28.0934C6.50693 26.7147 6.63626 25.3644 6.88279 24.0586ZM28 49.6622C27.7939 49.6622 27.5878 49.6582 27.3857 49.6501L36.4671 54.8852H36.4711C37.4451 54.5729 38.3909 54.212 39.3124 53.8024L39.7125 46.1789C36.3458 48.3849 32.3245 49.6622 28 49.6622ZM16.7604 46.4831L17.8274 48.758L21.1697 48.5512C19.6137 48.0281 18.1345 47.3306 16.7604 46.4831ZM6.88279 24.0586L4.65993 27.988L6.71709 31.1185C6.57968 30.129 6.50693 29.1234 6.50693 28.0934C6.50693 26.7147 6.63626 25.3644 6.88279 24.0586ZM28 49.6622C27.7939 49.6622 27.5878 49.6582 27.3857 49.6501L36.4671 54.8852H36.4711C37.4451 54.5729 38.3909 54.212 39.3124 53.8024L39.7125 46.1789C36.3458 48.3849 32.3245 49.6622 28 49.6622ZM16.7604 46.4831L17.8274 48.758L21.1697 48.5512C19.6137 48.0281 18.1345 47.3306 16.7604 46.4831ZM6.88279 24.0586L4.65993 27.988L6.71709 31.1185C6.57968 30.129 6.50693 29.1234 6.50693 28.0934C6.50693 26.7147 6.63626 25.3644 6.88279 24.0586ZM16.7604 46.4831L17.8274 48.758L21.1697 48.5512C19.6137 48.0281 18.1345 47.3306 16.7604 46.4831ZM6.88279 24.0586L4.65993 27.988L6.71709 31.1185C6.57968 30.129 6.50693 29.1234 6.50693 28.0934C6.50693 26.7147 6.63626 25.3644 6.88279 24.0586ZM16.7604 46.4831L17.8274 48.758L21.1697 48.5512C19.6137 48.0281 18.1345 47.3306 16.7604 46.4831ZM4.65993 27.988L6.71709 31.1185C6.57968 30.129 6.50693 29.1234 6.50693 28.0934C6.50693 26.7147 6.63626 25.3644 6.88279 24.0586L4.65993 27.988ZM28 0C22.6611 0 17.6697 1.50037 13.4261 4.10371C13.2806 4.18887 13.1391 4.27808 12.9977 4.37135C8.54388 7.20989 4.94688 11.2771 2.67552 16.0945C2.59469 16.2608 2.5179 16.4311 2.44111 16.6014C1.68533 18.2923 1.09122 20.0766 0.678984 21.9257C0.634527 22.1122 0.594111 22.2987 0.561778 22.4853C0.193995 24.2979 0 26.1713 0 28.0934C0 30.202 0.230369 32.2539 0.670901 34.2287C0.711316 34.4234 0.755774 34.618 0.804273 34.8086C1.87125 39.184 3.96074 43.1579 6.806 46.4587C6.91917 46.5885 7.03233 46.7183 7.15358 46.848C7.9134 47.6996 8.72979 48.5106 9.59065 49.2689C9.73614 49.3946 9.88568 49.5203 10.0352 49.646C13.0179 52.152 16.526 54.0458 20.3695 55.1325C20.5393 55.1852 20.709 55.2298 20.8788 55.2744C22.3014 55.6475 23.7725 55.9151 25.28 56.0571C25.4134 56.0733 25.5468 56.0854 25.6842 56.0936C26.448 56.1584 27.22 56.1909 28 56.1909C30.7563 56.1909 33.4197 55.7935 35.9336 55.0474H35.9376C36.1155 54.9946 36.2893 54.9419 36.4671 54.8852H36.4711C37.4451 54.5729 38.3909 54.212 39.3124 53.8024C39.4538 53.7416 39.5912 53.6808 39.7286 53.6119C42.6952 52.2413 45.3828 50.3597 47.6784 48.0808C47.7875 47.9753 47.8926 47.8659 48.0017 47.7564C52.9527 42.6916 56 35.7494 56 28.0934C56 12.5788 43.463 0 28 0ZM40.5208 45.6275C40.3955 45.7167 40.2662 45.8099 40.1328 45.8992L40.0964 45.9235C39.9711 46.0086 39.8418 46.0978 39.7125 46.1789C36.3458 48.3849 32.3245 49.6622 28 49.6622C27.7939 49.6622 27.5878 49.6582 27.3857 49.6501H27.3816C27.0785 49.646 26.7835 49.6298 26.4885 49.6055H26.4844C26.3915 49.6055 26.3025 49.5974 26.2096 49.5852C26.0762 49.5771 25.9428 49.5649 25.8095 49.5528C24.601 49.4311 23.4249 49.2081 22.2852 48.8918H22.2812C21.9053 48.7864 21.5375 48.6728 21.1697 48.5512C19.6137 48.0281 18.1345 47.3306 16.7604 46.4831C16.5462 46.3493 16.332 46.2114 16.1218 46.0695C12.9128 43.9324 10.3141 40.952 8.62875 37.4484C8.52367 37.2254 8.41859 37.0064 8.32159 36.7793C7.6709 35.2992 7.18187 33.734 6.87875 32.1039C6.81813 31.7795 6.76155 31.451 6.71709 31.1225C6.57968 30.129 6.50693 29.1234 6.50693 28.0934C6.50693 26.7147 6.63626 25.3644 6.88279 24.0586C6.96767 23.6045 7.06871 23.1544 7.18187 22.7124V22.7042C8.08314 19.1885 9.84931 16.0175 12.2379 13.4384C12.3187 13.3492 12.4036 13.26 12.4885 13.1708C12.5531 13.1019 12.6178 13.0329 12.6824 12.9681C12.832 12.814 12.9815 12.6639 13.1351 12.522C16.9948 8.80758 22.2286 6.52864 28 6.52864C39.8701 6.52864 49.4931 16.1837 49.4931 28.0934C49.4931 35.3155 45.9567 41.7103 40.5208 45.6275ZM6.88279 24.0586L4.65993 27.988L6.71709 31.1185C6.57968 30.129 6.50693 29.1234 6.50693 28.0934C6.50693 26.7147 6.63626 25.3644 6.88279 24.0586ZM16.7604 46.4831L17.8274 48.758L21.1697 48.5512C19.6137 48.0281 18.1345 47.3306 16.7604 46.4831ZM6.88279 24.0586L4.65993 27.988L6.71709 31.1185C6.57968 30.129 6.50693 29.1234 6.50693 28.0934C6.50693 26.7147 6.63626 25.3644 6.88279 24.0586ZM16.7604 46.4831L17.8274 48.758L21.1697 48.5512C19.6137 48.0281 18.1345 47.3306 16.7604 46.4831ZM6.88279 24.0586L4.65993 27.988L6.71709 31.1185C6.57968 30.129 6.50693 29.1234 6.50693 28.0934C6.50693 26.7147 6.63626 25.3644 6.88279 24.0586ZM16.7604 46.4831L17.8274 48.758L21.1697 48.5512C19.6137 48.0281 18.1345 47.3306 16.7604 46.4831ZM28 49.6622C27.7939 49.6622 27.5878 49.6582 27.3857 49.6501L36.4671 54.8852H36.4711C37.4451 54.5729 38.3909 54.212 39.3124 53.8024L39.7125 46.1789C36.3458 48.3849 32.3245 49.6622 28 49.6622ZM6.88279 24.0586L4.65993 27.988L6.71709 31.1185C6.57968 30.129 6.50693 29.1234 6.50693 28.0934C6.50693 26.7147 6.63626 25.3644 6.88279 24.0586ZM16.7604 46.4831L17.8274 48.758L21.1697 48.5512C19.6137 48.0281 18.1345 47.3306 16.7604 46.4831ZM28 49.6622C27.7939 49.6622 27.5878 49.6582 27.3857 49.6501L36.4671 54.8852H36.4711C37.4451 54.5729 38.3909 54.212 39.3124 53.8024L39.7125 46.1789C36.3458 48.3849 32.3245 49.6622 28 49.6622ZM6.88279 24.0586L4.65993 27.988L6.71709 31.1185C6.57968 30.129 6.50693 29.1234 6.50693 28.0934C6.50693 26.7147 6.63626 25.3644 6.88279 24.0586ZM16.7604 46.4831L17.8274 48.758L21.1697 48.5512C19.6137 48.0281 18.1345 47.3306 16.7604 46.4831ZM28 49.6622C27.7939 49.6622 27.5878 49.6582 27.3857 49.6501L36.4671 54.8852H36.4711C37.4451 54.5729 38.3909 54.212 39.3124 53.8024L39.7125 46.1789C36.3458 48.3849 32.3245 49.6622 28 49.6622ZM6.88279 24.0586L4.65993 27.988L6.71709 31.1185C6.57968 30.129 6.50693 29.1234 6.50693 28.0934C6.50693 26.7147 6.63626 25.3644 6.88279 24.0586ZM16.7604 46.4831C16.5462 46.3493 16.332 46.2114 16.1218 46.0695C12.9128 43.9324 10.3141 40.952 8.62875 37.4484L7.15358 46.848C7.9134 47.6996 8.72979 48.5106 9.59065 49.2689L17.3949 48.7864L17.8274 48.758L21.1697 48.5512C19.6137 48.0281 18.1345 47.3306 16.7604 46.4831ZM21.1697 48.5512C19.6137 48.0281 18.1345 47.3306 16.7604 46.4831C16.5462 46.3493 16.332 46.2114 16.1218 46.0695C12.9128 43.9324 10.3141 40.952 8.62875 37.4484C8.52367 37.2254 8.41859 37.0064 8.32159 36.7793C7.6709 35.2992 7.18187 33.734 6.87875 32.1039C6.81813 31.7795 6.76155 31.451 6.71709 31.1225C6.57968 30.129 6.50693 29.1234 6.50693 28.0934C6.50693 26.7147 6.63626 25.3644 6.88279 24.0586L4.65993 27.988L4.43764 28.3854L0.804273 34.8086C1.87125 39.184 3.96074 43.1579 6.806 46.4587C6.91917 46.5885 7.03233 46.7183 7.15358 46.848C7.9134 47.6996 8.72979 48.5106 9.59065 49.2689C9.73614 49.3946 9.88568 49.5203 10.0352 49.646L17.5768 49.1797L17.3949 48.7864L17.8274 48.758L21.1697 48.5512ZM12.254 13.2519L2.44111 16.6014C1.68533 18.2923 1.09122 20.0766 0.678984 21.9257L4.41339 27.6109L4.65993 27.988L4.43764 28.3854L6.87875 32.1039C6.81813 31.7795 6.76155 31.451 6.71709 31.1225C6.57968 30.129 6.50693 29.1234 6.50693 28.0934C6.50693 26.7147 6.63626 25.3644 6.88279 24.0586C6.96767 23.6045 7.06871 23.1544 7.18187 22.7124V22.7042C8.08314 19.1885 9.84931 16.0175 12.2379 13.4384C12.3187 13.3492 12.4036 13.26 12.4885 13.1708L12.254 13.2519ZM21.1697 48.5512C19.6137 48.0281 18.1345 47.3306 16.7604 46.4831C16.5462 46.3493 16.332 46.2114 16.1218 46.0695C12.9128 43.9324 10.3141 40.952 8.62875 37.4484C8.52367 37.2254 8.41859 37.0064 8.32159 36.7793L6.806 46.4587C6.91917 46.5885 7.03233 46.7183 7.15358 46.848C7.9134 47.6996 8.72979 48.5106 9.59065 49.2689C9.73614 49.3946 9.88568 49.5203 10.0352 49.646L17.5768 49.1797L17.3949 48.7864L17.8274 48.758L21.1697 48.5512ZM7.18187 22.7124L4.41339 27.6109L4.65993 27.988L4.43764 28.3854L6.87875 32.1039C6.81813 31.7795 6.76155 31.451 6.71709 31.1225C6.57968 30.129 6.50693 29.1234 6.50693 28.0934C6.50693 26.7147 6.63626 25.3644 6.88279 24.0586C6.96767 23.6045 7.06871 23.1544 7.18187 22.7124ZM12.254 13.2519L12.2379 13.4384C12.3187 13.3492 12.4036 13.26 12.4885 13.1708L12.254 13.2519ZM21.1697 48.5512C19.6137 48.0281 18.1345 47.3306 16.7604 46.4831C16.5462 46.3493 16.332 46.2114 16.1218 46.0695C12.9128 43.9324 10.3141 40.952 8.62875 37.4484C8.52367 37.2254 8.41859 37.0064 8.32159 36.7793L6.806 46.4587C6.91917 46.5885 7.03233 46.7183 7.15358 46.848C7.9134 47.6996 8.72979 48.5106 9.59065 49.2689C9.73614 49.3946 9.88568 49.5203 10.0352 49.646L17.5768 49.1797L17.3949 48.7864L17.8274 48.758L21.1697 48.5512Z" fill="url(#paint0_linear_290_102)"/>
<path d="M26.2095 49.5852L25.6841 56.0935C25.5467 56.0854 25.4133 56.0733 25.2799 56.057L25.8094 49.5527C25.9427 49.5649 26.0761 49.5771 26.2095 49.5852Z" fill="white"/>
<path d="M48.0019 47.7559C47.8927 47.8653 47.7877 47.9748 47.6785 48.0803L40.1329 45.9351L40.0966 45.923L40.1329 45.8986C40.2663 45.8094 40.3956 45.7162 40.5209 45.627L48.0019 47.7559Z" fill="white"/>
<path d="M46.781 28.0937C46.781 37.8339 39.3768 45.871 29.9236 46.8402C29.2891 46.901 28.6505 46.9375 28.0038 46.9375C27.2198 46.9375 26.4478 46.8889 25.688 46.7956C25.3687 46.755 25.0495 46.7064 24.7302 46.6537C24.7019 46.6496 24.6736 46.6415 24.6413 46.6374C24.3543 46.5888 24.0674 46.528 23.7844 46.4631C23.4369 46.386 23.0933 46.2928 22.7538 46.1914C22.5841 46.1427 22.4144 46.09 22.2487 46.0373C21.9092 45.9278 21.5697 45.8062 21.2383 45.6764C20.8058 45.5101 20.3814 45.3236 19.9652 45.1249C19.6257 44.9627 19.2943 44.7924 18.9669 44.614C18.9184 44.5896 18.8699 44.5613 18.8214 44.5329C18.8133 44.5288 18.8052 44.5248 18.7971 44.5167C18.1667 44.1639 17.5604 43.7705 16.9784 43.3447C16.6066 43.0731 16.2388 42.7851 15.8872 42.481C11.8133 39.0261 9.21863 33.864 9.21863 28.0977C9.21863 26.7961 9.352 25.5268 9.60662 24.2941C9.92994 22.7126 10.4513 21.2041 11.1465 19.793C11.7729 18.5156 12.5448 17.3154 13.438 16.2205C13.5795 16.0461 13.7209 15.8758 13.8705 15.7055C14.2746 15.2392 14.699 14.7972 15.1476 14.3714C15.2769 14.2497 15.4103 14.1321 15.5437 14.0105C15.8145 13.7672 16.0933 13.532 16.3762 13.309C17.5038 12.4168 18.7284 11.6504 20.0379 11.0341C20.2844 10.9165 20.535 10.807 20.7856 10.7016C21.1251 10.5596 21.4727 10.4218 21.8283 10.3001C22.0547 10.2231 22.285 10.146 22.5154 10.073C22.8306 9.97165 23.1499 9.88649 23.4692 9.80539C24.9201 9.44449 26.4398 9.25391 28.0038 9.25391C28.2585 9.25391 28.509 9.25796 28.7596 9.27013C29.8791 9.31473 30.9784 9.45666 32.0414 9.69591C32.393 9.77295 32.7365 9.85811 33.0841 9.95543C33.1003 9.95543 33.1164 9.95949 33.1326 9.9676C33.5772 10.0933 34.0137 10.2352 34.4421 10.3974C34.7573 10.5069 35.0685 10.6326 35.3757 10.7664C36.4507 11.2287 37.4732 11.7883 38.4351 12.4331C39.8093 13.3536 41.05 14.4525 42.1291 15.6933C42.2908 15.8758 42.4484 16.0623 42.602 16.2529C43.2244 17.0274 43.7943 17.8547 44.2954 18.7265C44.7279 19.4767 45.1078 20.2593 45.4311 21.0744C45.6251 21.5488 45.7948 22.0354 45.9444 22.5302C46.2435 23.4912 46.4617 24.4806 46.6032 25.5025C46.6274 25.6607 46.6476 25.8188 46.6638 25.9769C46.7406 26.6744 46.785 27.38 46.785 28.1018L46.781 28.0937Z" fill="url(#paint1_linear_290_102)"/>
<path opacity="0.37" d="M37.1825 28.7622C36.0549 28.9325 33.6946 29.5002 31.6536 30.887L29.5278 33.0362L34.7212 34.7353L39.3609 28.6527C39.3609 28.6527 38.0797 28.6324 37.1825 28.7662V28.7622ZM20.8828 28.0931C20.8667 28.0606 20.8465 28.0282 20.8343 27.9958C20.5595 27.424 20.2928 26.8644 20.022 26.3089C19.4804 25.1897 18.8782 23.9691 18.2356 22.7769L17.5526 21.6131L16.8696 31.8683L21.5659 33.5188L20.8828 28.0971V28.0931ZM16.6715 33.4579L15.8875 42.4764C16.2391 42.7805 16.6069 43.0684 16.9787 43.3401C17.5607 43.7659 18.1669 44.1552 18.7974 44.512L19.921 34.3054L16.6756 33.4579H16.6715ZM21.2749 37.6955L18.9671 44.6093C19.2945 44.7918 19.6219 44.9621 19.9654 45.1203C20.3776 45.319 20.8061 45.5055 21.2385 45.6717L24.0636 39.058L21.2749 37.6955ZM44.7726 22.5255C43.9319 22.4282 43.0791 22.3836 42.2304 22.3836C41.7818 22.3836 41.3332 22.3998 40.8846 22.4241L39.5387 22.5661C39.0901 22.6025 38.6496 22.7201 38.201 22.7972L37.5341 22.931L36.8753 23.1013C33.6097 23.9569 30.5988 25.6925 28.2021 27.9512C28.2183 27.9228 28.2385 27.8903 28.2587 27.862C28.8528 26.9009 29.5318 25.9885 30.2795 25.1451C31.7789 23.4582 33.5613 22.0227 35.5578 20.9886C36.5439 20.4534 37.5745 19.9951 38.6496 19.6545C38.9163 19.5613 39.1831 19.4761 39.4579 19.4072L40.2703 19.1882C40.8239 19.0868 41.3736 18.9408 41.9313 18.876L42.772 18.7543L43.1236 18.7259C42.6265 17.8541 42.0566 17.0269 41.4302 16.2523C40.828 16.2321 40.2298 16.2848 39.6236 16.3294C38.981 16.4145 38.3343 16.5037 37.6998 16.67C37.0572 16.8038 36.4348 17.0309 35.8084 17.2418C35.4972 17.3513 35.2021 17.5013 34.895 17.6311C34.5918 17.7608 34.2928 17.9109 34.0018 18.069C32.955 18.6164 31.985 19.3017 31.104 20.0762C31.2293 19.7559 31.3586 19.4396 31.4798 19.1233C32.4256 16.6578 33.2622 14.1478 33.9775 11.5931C34.0341 11.3944 34.2766 10.8105 34.4342 10.3968C34.0058 10.2346 33.5693 10.0927 33.1248 9.967C33.1086 9.96295 33.0924 9.95889 33.0763 9.95484C32.7327 9.85751 32.3892 9.77236 32.0335 9.69531C31.8517 10.0643 31.6253 10.5144 31.5526 10.6645C30.3846 13.0448 29.3338 15.4738 28.3961 17.9433C27.4746 20.3642 26.6542 22.8256 25.9469 25.3275C26.0358 24.7923 26.1086 24.2489 26.1611 23.7055C26.3511 21.7307 26.3107 19.7235 25.9591 17.7568C25.761 16.7795 25.5024 15.8144 25.1588 14.8736C24.8072 13.941 24.399 13.0286 23.9019 12.1648C23.4816 11.443 23.0249 10.7375 22.5116 10.0765C22.2812 10.1454 22.0549 10.2225 21.8245 10.3036C21.4729 10.4252 21.1253 10.5631 20.7818 10.705C21.0849 11.6701 21.3638 12.5703 21.5982 13.4584C21.8326 14.2978 22.0226 15.121 22.2206 15.9279C22.2529 16.1347 22.3095 16.3334 22.354 16.5362C22.4065 16.7349 22.4348 16.9417 22.4752 17.1444C22.4914 17.2458 22.5237 17.3472 22.5439 17.4445L22.6005 17.7527C22.6369 17.9555 22.6894 18.1582 22.7096 18.365C23.0087 19.9992 23.2633 21.6739 23.522 23.4703C23.6756 24.5044 23.8251 25.5668 24.007 26.7022C23.3199 24.3827 22.4106 22.1119 21.1213 20.0438C20.414 18.9489 19.6178 17.9027 18.6883 16.9782C17.7547 16.0577 16.7119 15.2548 15.5722 14.606C15.4308 14.5249 15.2853 14.4438 15.1357 14.3708C14.6871 14.7966 14.2587 15.2386 13.8586 15.7049C13.7091 15.8752 13.5676 16.0455 13.4261 16.2199C13.7212 16.4389 14.0041 16.6659 14.2708 16.9093C14.485 17.0633 14.6629 17.2742 14.8569 17.4526C14.9498 17.5459 15.0549 17.627 15.1479 17.7203L15.4186 18.0082C15.7864 18.3812 16.1259 18.7827 16.4654 19.1801C16.623 19.395 16.7928 19.5978 16.9625 19.8005C17.1242 20.0154 17.2737 20.2385 17.4273 20.4534C17.589 20.6642 17.7385 20.8994 17.8921 21.1184L18.1184 21.455L18.3286 21.8118C19.5047 23.665 20.5474 25.7412 21.6103 27.9268C22.0509 28.8271 22.4873 29.7394 22.94 30.6762L21.3719 37.2129L25.8661 38.2875L27.4827 32.1319C28.0566 31.5804 28.6548 31.0614 29.2772 30.5667C31.7708 28.5919 34.6484 27.0874 37.72 26.2967C39.2477 25.8871 40.8159 25.5871 42.4042 25.51C42.8003 25.4654 43.1964 25.4654 43.5924 25.4614C43.9885 25.4614 44.3886 25.437 44.7847 25.4614C44.9949 25.4735 45.2091 25.4857 45.4192 25.4979C45.2778 24.48 45.0595 23.4865 44.7604 22.5255H44.7726ZM29.2691 33.3363L22.7541 46.1867L24.6415 46.6328L33.1975 35.4976L29.2691 33.3363Z" fill="#246030"/>
<path d="M46.5994 25.4937C46.3892 25.4815 46.175 25.4694 45.9648 25.4572C45.5688 25.4329 45.1686 25.4572 44.7726 25.4572C44.3765 25.4572 43.9804 25.4572 43.5843 25.5059C41.996 25.5829 40.4279 25.883 38.9002 26.2925C35.8245 27.0833 32.951 28.5877 30.4573 30.5625C29.8349 31.0572 29.2368 31.5763 28.6629 32.1278L25.8782 38.2833L22.3136 37.152L24.1201 30.6679C23.6634 29.7312 23.231 28.8148 22.7905 27.9186C21.7275 25.7329 20.6848 23.6567 19.5087 21.8036L19.2985 21.4467L19.0722 21.1102C18.9186 20.8912 18.7731 20.656 18.6074 20.4451C18.4498 20.2302 18.3003 20.0072 18.1427 19.7923C17.9729 19.5895 17.8032 19.3868 17.6455 19.1719C17.306 18.7745 16.9666 18.369 16.5988 17.9999L16.328 17.712C16.235 17.6188 16.13 17.5377 16.037 17.4444C15.843 17.27 15.6652 17.0592 15.451 16.901C14.97 16.4631 14.4406 16.0697 13.8748 15.6967C14.3921 15.0925 14.9539 14.5288 15.548 14.0017C15.9602 14.176 16.3644 14.3747 16.7524 14.5978C17.888 15.2425 18.9348 16.0495 19.8684 16.97C20.798 17.8905 21.5942 18.9407 22.3014 20.0356C23.5947 22.1037 24.5041 24.3745 25.1871 26.694C25.0052 25.5626 24.8557 24.5002 24.7021 23.4621C24.4435 21.6657 24.1929 19.9869 23.8898 18.3568C23.8655 18.15 23.813 17.9513 23.7806 17.7445L23.7241 17.4363C23.6998 17.3349 23.6715 17.2376 23.6554 17.1362C23.6149 16.9335 23.5866 16.7267 23.5341 16.528C23.4856 16.3252 23.4331 16.1265 23.4007 15.9197C23.2067 15.1128 23.0127 14.2896 22.7783 13.4502C22.5116 12.4405 22.1842 11.4145 21.8366 10.2953L23.4775 9.80469C24.0797 10.5346 24.6051 11.3375 25.082 12.1566C25.5791 13.0244 25.9873 13.9368 26.339 14.8654C26.6825 15.8062 26.9412 16.7713 27.1392 17.7485C27.4908 19.7152 27.5312 21.7225 27.3413 23.6973C27.2887 24.2407 27.216 24.7841 27.1271 25.3193C27.8343 22.8174 28.6548 20.3559 29.5763 17.9351C30.5139 15.4655 31.5607 13.0406 32.7327 10.6562C32.8499 10.4211 32.9671 10.1859 33.0884 9.94661C33.1045 9.94661 33.1207 9.95067 33.1369 9.95878C33.9088 10.1778 34.6565 10.4454 35.38 10.7576C35.3032 11.0374 35.2304 11.3091 35.1536 11.5849C34.4383 14.1395 33.6017 16.6496 32.6559 19.1151C32.5347 19.4354 32.4054 19.7517 32.2801 20.068C33.1611 19.2935 34.1311 18.6082 35.1779 18.0608C35.4689 17.9026 35.7679 17.7526 36.0711 17.6228C36.3782 17.4931 36.6733 17.343 36.9845 17.2335C37.6109 17.0186 38.2293 16.7956 38.8759 16.6618C39.5104 16.4996 40.1571 16.4063 40.7997 16.3212C41.4059 16.2725 42.0081 16.2198 42.6063 16.2441C43.2287 17.0186 43.7985 17.8459 44.2997 18.7177L43.9481 18.7461L43.1074 18.8677C42.5457 18.9326 42 19.0786 41.4464 19.18L40.634 19.3989C40.3592 19.4679 40.0924 19.549 39.8257 19.6463C38.7506 19.9869 37.72 20.4451 36.7339 20.9804C34.7373 22.0145 32.955 23.4459 31.4556 25.1368C30.7079 25.9844 30.0289 26.8927 29.4348 27.8537C29.4146 27.8821 29.3984 27.9146 29.3782 27.9429C31.7749 25.6843 34.7858 23.9487 38.0514 23.0931L38.7102 22.9228L39.3771 22.789C39.8216 22.7119 40.2622 22.5943 40.7148 22.5578L42.0607 22.4159C42.5093 22.3916 42.9579 22.3754 43.4065 22.3754C44.2593 22.3754 45.108 22.42 45.9487 22.5173C46.2477 23.4783 46.466 24.4678 46.6074 25.4896L46.5994 25.4937ZM22.2166 38.1576L19.9654 45.1201C20.701 45.4729 21.4648 45.7771 22.2489 46.0325L25.0052 39.5161L22.2166 38.1536V38.1576ZM17.8395 33.7701L16.9787 43.34C17.5688 43.7698 18.1831 44.1672 18.8216 44.5241L21.0849 34.6135L17.8395 33.766V33.7701ZM25.6842 46.7949L34.2604 36.0855L30.332 33.9241L23.7847 46.4583L25.6883 46.7949H25.6842ZM22.1196 30.3435C21.8447 29.7718 21.578 29.2122 21.3032 28.6566C20.7616 27.5374 20.1594 26.3169 19.5168 25.1247L18.8378 23.9609L18.0376 31.8682L21.5659 33.5186L22.1681 30.4449C22.1519 30.4125 22.1357 30.38 22.1196 30.3476V30.3435ZM38.3505 28.7621C37.2229 28.9324 34.8586 29.5001 32.8216 30.8869L31.108 33.2753L34.7212 34.7311L40.0035 28.6485C40.0035 28.6485 39.2477 28.6242 38.3505 28.758V28.7621Z" fill="white"/>
<path d="M12.254 13.2519L2.44104 16.6014C2.51783 16.431 2.59462 16.2607 2.67545 16.0945L12.2903 12.8099L12.7066 12.668L13.135 12.522C12.9815 12.6639 12.8319 12.8139 12.6824 12.968L12.6703 13.11L12.4884 13.1708L12.254 13.2519Z" fill="white"/>
<path d="M6.87874 32.104L4.43763 28.3855L4.18706 28.0084L0.561768 22.4854C0.5941 22.2988 0.634516 22.1123 0.678973 21.9258L4.41338 27.611L4.65992 27.9881L6.71708 31.1186C6.76154 31.4511 6.81812 31.7796 6.87874 32.104Z" fill="white"/>
<path d="M8.32162 36.7793C8.41862 37.0064 8.5237 37.2254 8.62878 37.4484L7.15361 46.848C7.03236 46.7182 6.91919 46.5885 6.80603 46.4587L8.32162 36.7793Z" fill="white"/>
<path d="M21.1697 48.5508C21.5375 48.6724 21.9052 48.786 22.2811 48.8914L18.0132 49.155L17.5767 49.1793L10.0351 49.6456C9.88561 49.5199 9.73607 49.3942 9.59058 49.2685L17.3948 48.786L17.8273 48.7576L21.1697 48.5508Z" fill="white"/>
<path d="M27.3856 49.6501L36.467 54.8852C36.2892 54.9419 36.1154 54.9946 35.9376 55.0473H35.9336L26.4884 49.6055C26.7834 49.6298 27.0785 49.646 27.3816 49.6501H27.3856Z" fill="white"/>
<path d="M40.0966 45.9237C39.9713 46.0089 39.8419 46.0981 39.7126 46.1792L39.3125 53.8027C39.454 53.7419 39.5914 53.6811 39.7288 53.6121L40.1329 45.9359V45.8994L40.0966 45.9237Z" fill="white"/>
<path d="M12.4885 13.1706C12.4036 13.2598 12.3187 13.349 12.2379 13.4382L12.2541 13.2517L12.2905 12.8097L12.9977 4.37115C13.1392 4.27788 13.2806 4.18867 13.4261 4.10352L12.7067 12.6678L12.6825 12.9679L12.6704 13.1098L12.4885 13.1706Z" fill="white"/>
<path d="M4.41339 27.6109L7.18187 22.7124C7.0687 23.1544 6.96767 23.6045 6.88279 24.0587L4.65993 27.988L4.43764 28.3854L0.80427 34.8086C0.755771 34.618 0.711314 34.4234 0.670898 34.2288L4.18706 28.0083L4.41339 27.6109Z" fill="white"/>
<path d="M20.8789 55.2743C20.7091 55.2297 20.5394 55.1851 20.3696 55.1324L17.5769 49.1796L17.395 48.7862L16.1219 46.0693C16.3321 46.2113 16.5463 46.3491 16.7605 46.483L17.8275 48.7578L18.0134 49.1552L20.8789 55.2743Z" fill="white"/>
<path d="M4.38528 29.2205C5.0683 29.2205 5.622 28.6649 5.622 27.9796C5.622 27.2943 5.0683 26.7388 4.38528 26.7388C3.70226 26.7388 3.14856 27.2943 3.14856 27.9796C3.14856 28.6649 3.70226 29.2205 4.38528 29.2205Z" fill="white"/>
<path d="M12.9815 9.01001C13.6645 9.01001 14.2182 8.45447 14.2182 7.76917C14.2182 7.08387 13.6645 6.52832 12.9815 6.52832C12.2984 6.52832 11.7448 7.08387 11.7448 7.76917C11.7448 8.45447 12.2984 9.01001 12.9815 9.01001Z" fill="white"/>
<path d="M32.3446 53.8713C33.0277 53.8713 33.5813 53.3158 33.5813 52.6305C33.5813 51.9452 33.0277 51.3896 32.3446 51.3896C31.6616 51.3896 31.1079 51.9452 31.1079 52.6305C31.1079 53.3158 31.6616 53.8713 32.3446 53.8713Z" fill="white"/>
<path d="M7.60623 44.1228C8.28925 44.1228 8.84295 43.5673 8.84295 42.882C8.84295 42.1967 8.28925 41.6411 7.60623 41.6411C6.92321 41.6411 6.36951 42.1967 6.36951 42.882C6.36951 43.5673 6.92321 44.1228 7.60623 44.1228Z" fill="white"/>
<defs>
<linearGradient id="paint0_linear_290_102" x1="9.44919" y1="43.4256" x2="49.2158" y2="10.7826" gradientUnits="userSpaceOnUse">
<stop stop-color="#0E2F50"/>
<stop offset="1" stop-color="#026FA6"/>
</linearGradient>
<linearGradient id="paint1_linear_290_102" x1="10.4432" y1="32.2258" x2="46.2397" y2="23.8565" gradientUnits="userSpaceOnUse">
<stop stop-color="#086C38"/>
<stop offset="1" stop-color="#57B647"/>
</linearGradient>
</defs>
</svg>
