<svg width="52" height="52" viewBox="0 0 52 52" fill="none" xmlns="http://www.w3.org/2000/svg">
<path d="M46.2394 11.3748C46.023 11.1908 45.7961 11.0276 45.5518 10.8818C44.9689 10.5242 44.3162 10.2708 43.6147 10.1458C43.3599 10.1007 43.0946 10.0729 42.8259 10.0694C42.7631 10.0625 42.7002 10.0625 42.6374 10.0625H34.5993L30.561 11.0068C29.5035 11.2533 29.1335 12.5655 29.9118 13.3189L31.2905 14.6589L27.6397 18.3354H38.5747C39.3077 18.3354 39.901 18.9256 39.901 19.6546V23.7268C39.901 23.8344 39.8906 23.9351 39.8626 24.0323C39.723 24.6121 39.1995 25.0426 38.5747 25.0426H20.9767L16.1496 29.9028L14.5581 31.5033L14.5336 31.5276C14.5336 31.5276 14.5336 31.5275 14.5336 31.5345C13.49 32.9266 12.8723 34.652 12.8723 36.5232C12.8723 37.3703 13.0014 38.1861 13.2352 38.9568C13.312 39.12 13.3923 39.2762 13.4831 39.4324C13.7309 39.8629 14.0275 40.2726 14.3801 40.651L17.448 43.949L17.4585 43.956C17.4829 43.9664 17.5074 43.9803 17.5318 43.9907C17.5911 44.0219 17.6539 44.0497 17.7133 44.0809C17.7726 44.1087 17.8354 44.14 17.8948 44.1643C18.0169 44.2198 18.1426 44.2719 18.2682 44.317C18.3939 44.3656 18.5195 44.4107 18.6522 44.4524C18.7429 44.4802 18.8337 44.5114 18.9244 44.5357C18.9663 44.5461 19.0012 44.56 19.0431 44.5704C19.1408 44.5982 19.242 44.6225 19.3467 44.6468C19.4689 44.6746 19.5945 44.7024 19.7202 44.7232C19.7795 44.7336 19.8424 44.744 19.9017 44.751C20.0622 44.7787 20.2228 44.7996 20.3903 44.8169C20.495 44.8273 20.6032 44.8378 20.7114 44.8412C20.8929 44.8551 21.0779 44.8621 21.2629 44.8621H26.5297C28.0375 44.8621 28.9276 43.1749 28.069 41.9424L25.3291 38.0056L24.9068 37.3981C24.6345 37.0092 24.2227 36.735 23.7654 36.6378C23.6363 36.61 23.5037 36.5961 23.371 36.5961H21.2036V36.5857L20.5195 33.3085H29.9851L29.9956 33.3189L32.3062 36.5961L32.3376 36.6378L37.4788 43.9212L37.5835 44.0705C37.936 44.5635 38.5049 44.8586 39.1157 44.8586H44.6443C46.1521 44.8586 47.0422 43.1714 46.1835 41.939L42.4629 36.5926L40.1523 33.3154L40.1419 33.305H42.6409C45.7193 33.305 48.2149 30.8193 48.2149 27.7574V15.6032C48.2149 13.9056 47.4505 12.385 46.2394 11.3713V11.3748Z" fill="url(#paint0_linear_290_135)"/>
<path d="M23.1476 45.4287C21.399 45.4287 19.9785 46.8382 19.9785 48.5809C19.9785 50.3237 21.3955 51.7332 23.1476 51.7332C24.8998 51.7332 26.3168 50.3237 26.3168 48.5809C26.3168 46.8382 24.8998 45.4287 23.1476 45.4287Z" fill="#00507D"/>
<path d="M43.0702 45.4287C41.3215 45.4287 39.901 46.8382 39.901 48.5809C39.901 50.3237 41.318 51.7332 43.0702 51.7332C44.8223 51.7332 46.2393 50.3237 46.2393 48.5809C46.2393 46.8382 44.8223 45.4287 43.0702 45.4287Z" fill="#00507D"/>
<path d="M46.2394 11.3748C46.023 11.1908 45.7961 11.0276 45.5518 10.8818C44.9689 10.5242 44.3162 10.2708 43.6147 10.1458C43.3599 10.1007 43.0946 10.0729 42.8259 10.0694C42.7631 10.0625 42.7002 10.0625 42.6374 10.0625H34.5993L30.561 11.0068C29.5035 11.2533 29.1335 12.5655 29.9118 13.3189L31.2905 14.6589L27.6397 18.3354H38.5747C39.3077 18.3354 39.901 18.9256 39.901 19.6546V23.7268C39.901 23.8344 39.8906 23.9351 39.8626 24.0323C39.723 24.6121 39.1995 25.0426 38.5747 25.0426H20.9767L16.1496 29.9028L14.5581 31.5033L14.5336 31.5276C14.5336 31.5276 14.5336 31.5275 14.5336 31.5345C13.49 32.9266 12.8723 34.652 12.8723 36.5232C12.8723 37.3703 13.0014 38.1861 13.2352 38.9568C13.312 39.12 13.3923 39.2762 13.4831 39.4324C13.7309 39.8629 14.0275 40.2726 14.3801 40.651L17.448 43.949L17.4585 43.956C17.4829 43.9664 17.5074 43.9803 17.5318 43.9907C17.5911 44.0219 17.6539 44.0497 17.7133 44.0809C17.7726 44.1087 17.8354 44.14 17.8948 44.1643C18.0169 44.2198 18.1426 44.2719 18.2682 44.317C18.3939 44.3656 18.5195 44.4107 18.6522 44.4524C18.7429 44.4802 18.8337 44.5114 18.9244 44.5357C18.9663 44.5461 19.0012 44.56 19.0431 44.5704C19.1408 44.5982 19.242 44.6225 19.3467 44.6468C19.4689 44.6746 19.5945 44.7024 19.7202 44.7232C19.7795 44.7336 19.8424 44.744 19.9017 44.751C20.0622 44.7787 20.2228 44.7996 20.3903 44.8169C20.495 44.8273 20.6032 44.8378 20.7114 44.8412C20.8929 44.8551 21.0779 44.8621 21.2629 44.8621H26.5297C28.0375 44.8621 28.9276 43.1749 28.069 41.9424L25.3291 38.0056L24.9068 37.3981C24.6345 37.0092 24.2227 36.735 23.7654 36.6378C23.6363 36.61 23.5037 36.5961 23.371 36.5961H21.2036V36.5857L20.5195 33.3085H29.9851L29.9956 33.3189L32.3062 36.5961L32.3376 36.6378L37.4788 43.9212L37.5835 44.0705C37.936 44.5635 38.5049 44.8586 39.1157 44.8586H44.6443C46.1521 44.8586 47.0422 43.1714 46.1835 41.939L42.4629 36.5926L40.1523 33.3154L40.1419 33.305H42.6409C45.7193 33.305 48.2149 30.8193 48.2149 27.7574V15.6032C48.2149 13.9056 47.4505 12.385 46.2394 11.3713V11.3748Z" fill="#00507D"/>
<mask id="mask0_290_135" style="mask-type:luminance" maskUnits="userSpaceOnUse" x="12" y="10" width="37" height="35">
<path d="M46.2394 11.3748C46.023 11.1908 45.7961 11.0276 45.5518 10.8818C44.9689 10.5242 44.3162 10.2708 43.6147 10.1458C43.3599 10.1007 43.0946 10.0729 42.8259 10.0694C42.7631 10.0625 42.7002 10.0625 42.6374 10.0625H34.5993L30.561 11.0068C29.5035 11.2533 29.1335 12.5655 29.9118 13.3189L31.2905 14.6589L27.6397 18.3354H38.5747C39.3077 18.3354 39.901 18.9256 39.901 19.6546V23.7268C39.901 23.8344 39.8906 23.9351 39.8626 24.0323C39.723 24.6121 39.1995 25.0426 38.5747 25.0426H20.9767L16.1496 29.9028L14.5581 31.5033L14.5336 31.5276C14.5336 31.5276 14.5336 31.5275 14.5336 31.5345C13.49 32.9266 12.8723 34.652 12.8723 36.5232C12.8723 37.3703 13.0014 38.1861 13.2352 38.9568C13.312 39.12 13.3923 39.2762 13.4831 39.4324C13.7309 39.8629 14.0275 40.2726 14.3801 40.651L17.448 43.949L17.4585 43.956C17.4829 43.9664 17.5074 43.9803 17.5318 43.9907C17.5911 44.0219 17.6539 44.0497 17.7133 44.0809C17.7726 44.1087 17.8354 44.14 17.8948 44.1643C18.0169 44.2198 18.1426 44.2719 18.2682 44.317C18.3939 44.3656 18.5195 44.4107 18.6522 44.4524C18.7429 44.4802 18.8337 44.5114 18.9244 44.5357C18.9663 44.5461 19.0012 44.56 19.0431 44.5704C19.1408 44.5982 19.242 44.6225 19.3467 44.6468C19.4689 44.6746 19.5945 44.7024 19.7202 44.7232C19.7795 44.7336 19.8424 44.744 19.9017 44.751C20.0622 44.7787 20.2228 44.7996 20.3903 44.8169C20.495 44.8273 20.6032 44.8378 20.7114 44.8412C20.8929 44.8551 21.0779 44.8621 21.2629 44.8621H26.5297C28.0375 44.8621 28.9276 43.1749 28.069 41.9424L25.3291 38.0056L24.9068 37.3981C24.6345 37.0092 24.2227 36.735 23.7654 36.6378C23.6363 36.61 23.5037 36.5961 23.371 36.5961H21.2036V36.5857L20.5195 33.3085H29.9851L29.9956 33.3189L32.3062 36.5961L32.3376 36.6378L37.4788 43.9212L37.5835 44.0705C37.936 44.5635 38.5049 44.8586 39.1157 44.8586H44.6443C46.1521 44.8586 47.0422 43.1714 46.1835 41.939L42.4629 36.5926L40.1523 33.3154L40.1419 33.305H42.6409C45.7193 33.305 48.2149 30.8193 48.2149 27.7574V15.6032C48.2149 13.9056 47.4505 12.385 46.2394 11.3713V11.3748Z" fill="white"/>
</mask>
<g mask="url(#mask0_290_135)">
<path d="M50.3647 8.58398L47.1082 19.2835C46.8046 20.2764 45.4992 20.5993 44.7488 19.8668L44.0263 19.1655L43.5377 18.6899L21.9537 37.6415C20.1597 39.3287 19.6222 42.6267 21.6152 44.859H21.2592C21.0742 44.859 20.8857 44.852 20.7077 44.8382C20.5995 44.8312 20.4913 44.8243 20.3866 44.8139C20.2226 44.7965 20.0585 44.7757 19.898 44.7479C19.7269 44.6958 19.5594 44.6368 19.3919 44.5743C19.2662 44.5257 19.1406 44.4736 19.0184 44.4216C18.9591 44.3938 18.8928 44.3625 18.8334 44.3313C18.7741 44.3035 18.7113 44.2723 18.6519 44.241C18.6275 44.2306 18.6031 44.2167 18.5786 44.2063C16.5508 43.1752 15.029 41.3908 14.4112 39.2419C14.1948 38.4851 14.0866 37.6831 14.1076 36.8534C14.1564 35.0239 14.837 33.3401 15.9435 31.9931C15.9435 31.9931 15.9435 31.9931 15.9435 31.9862C15.9539 31.9793 15.9574 31.9758 15.9679 31.9654L17.6362 30.4205L22.6937 25.7338L23.4511 25.0325L33.8067 16.4785L34.8189 15.5411L37.6321 12.9374L36.2639 11.6078C35.4891 10.8544 35.9009 9.57339 36.9864 9.34774L46.9581 7.27865L48.7347 6.90718C49.7713 6.69194 50.6648 7.60845 50.3682 8.58051L50.3647 8.58398Z" fill="#00507D"/>
</g>
<path d="M35.9674 14.673L32.334 18.3321H19.043C18.2018 18.3321 17.5736 19.0958 17.7446 19.9151L19.8807 30.6876L15.8878 34.7077L14.2997 36.3081L13.6749 36.9052V37.1378C13.3713 37.6065 13.2317 37.9676 13.0153 38.4709L10.1742 25.0323L6.74323 8.84063H1.87079C0.834179 8.84063 0 8.00744 0 6.97984V3.00483C0 1.97723 0.837669 1.14404 1.87079 1.14404H12.2509C13.1409 1.14404 13.9053 1.76546 14.0868 2.62643L15.7028 10.0592H35.9046C35.559 10.4411 35.3043 10.9028 35.1577 11.4166C34.8331 12.5692 35.1472 13.8016 35.9674 14.6695V14.673Z" fill="#00507D"/>
<path d="M32.6201 24.8872H16.8929V33.1254H32.6201V24.8872Z" fill="#00507D"/>
<path d="M39.8101 23.9913C39.6704 24.5711 39.1469 25.0016 38.5221 25.0016H20.9241L16.0971 29.8618L14.5055 31.4623L14.481 31.4866C14.481 31.4866 14.481 31.4866 14.481 31.4935C13.4375 32.8856 12.8197 34.611 12.8197 36.4822C12.8197 37.3293 12.9488 38.1451 13.1827 38.9158C13.2594 39.079 13.3397 39.2352 13.4305 39.3914C13.6783 39.8219 13.975 40.2316 14.3275 40.61L17.3954 43.908L17.4059 43.915C17.4303 43.9254 17.4548 43.9393 17.4792 43.9497C17.5385 43.9809 17.6014 44.0087 17.6607 44.0399C17.72 44.0677 17.7829 44.099 17.8422 44.1233C17.9644 44.1788 18.09 44.2309 18.2157 44.276C18.3413 44.3246 18.467 44.3698 18.5996 44.4114C18.6903 44.4392 18.7811 44.4704 18.8718 44.4947C18.9137 44.5051 18.9486 44.519 18.9905 44.5294C19.0882 44.5572 19.1894 44.5815 19.2942 44.6058C19.4163 44.6336 19.542 44.6614 19.6676 44.6822C19.7269 44.6926 19.7898 44.703 19.8491 44.71C20.0097 44.7377 20.1702 44.7586 20.3377 44.7759C20.4425 44.7863 20.5507 44.7968 20.6589 44.8002C20.8404 44.8141 21.0253 44.8211 21.2103 44.8211H26.4772C27.985 44.8211 28.875 43.1339 28.0164 41.9014L25.2765 37.9646L24.8542 37.3571C24.5819 36.9682 24.1701 36.694 23.7129 36.5968C23.5837 36.569 23.4511 36.5551 23.3185 36.5551H21.151V36.5447L20.4669 33.2675H29.9325L29.943 33.2779L32.2536 36.5551L32.285 36.5968L37.4262 43.8802L37.5309 44.0295C37.8834 44.5225 38.4523 44.8176 39.0631 44.8176H44.5918C46.0996 44.8176 46.9896 43.1304 46.131 41.898L42.4103 36.5517L40.0998 33.2744L40.0893 33.264H42.5883C45.6668 33.264 48.1623 30.7783 48.1623 27.7164C48.1623 27.7164 39.838 23.8837 39.8135 23.9844L39.8101 23.9913Z" fill="#00507D"/>
<mask id="mask1_290_135" style="mask-type:luminance" maskUnits="userSpaceOnUse" x="12" y="23" width="37" height="22">
<path d="M39.8101 23.9913C39.6704 24.5711 39.1469 25.0016 38.5221 25.0016H20.9241L16.0971 29.8618L14.5055 31.4623L14.481 31.4866C14.481 31.4866 14.481 31.4866 14.481 31.4935C13.4375 32.8856 12.8197 34.611 12.8197 36.4822C12.8197 37.3293 12.9488 38.1451 13.1827 38.9158C13.2594 39.079 13.3397 39.2352 13.4305 39.3914C13.6783 39.8219 13.975 40.2316 14.3275 40.61L17.3954 43.908L17.4059 43.915C17.4303 43.9254 17.4548 43.9393 17.4792 43.9497C17.5385 43.9809 17.6014 44.0087 17.6607 44.0399C17.72 44.0677 17.7829 44.099 17.8422 44.1233C17.9644 44.1788 18.09 44.2309 18.2157 44.276C18.3413 44.3246 18.467 44.3698 18.5996 44.4114C18.6903 44.4392 18.7811 44.4704 18.8718 44.4947C18.9137 44.5051 18.9486 44.519 18.9905 44.5294C19.0882 44.5572 19.1894 44.5815 19.2942 44.6058C19.4163 44.6336 19.542 44.6614 19.6676 44.6822C19.7269 44.6926 19.7898 44.703 19.8491 44.71C20.0097 44.7377 20.1702 44.7586 20.3377 44.7759C20.4425 44.7863 20.5507 44.7968 20.6589 44.8002C20.8404 44.8141 21.0253 44.8211 21.2103 44.8211H26.4772C27.985 44.8211 28.875 43.1339 28.0164 41.9014L25.2765 37.9646L24.8542 37.3571C24.5819 36.9682 24.1701 36.694 23.7129 36.5968C23.5837 36.569 23.4511 36.5551 23.3185 36.5551H21.151V36.5447L20.4669 33.2675H29.9325L29.943 33.2779L32.2536 36.5551L32.285 36.5968L37.4262 43.8802L37.5309 44.0295C37.8834 44.5225 38.4523 44.8176 39.0631 44.8176H44.5918C46.0996 44.8176 46.9896 43.1304 46.131 41.898L42.4103 36.5517L40.0998 33.2744L40.0893 33.264H42.5883C45.6668 33.264 48.1623 30.7783 48.1623 27.7164C48.1623 27.7164 39.838 23.8837 39.8135 23.9844L39.8101 23.9913Z" fill="white"/>
</mask>
<g mask="url(#mask1_290_135)">
<path d="M50.3124 8.54931L47.056 19.2489C46.7524 20.2417 45.447 20.5646 44.6966 19.8321L43.9741 19.1308L43.4854 18.6552L21.9015 37.6068C20.1075 39.294 19.57 42.5921 21.563 44.8243H21.207C21.022 44.8243 20.8335 44.8174 20.6555 44.8035C20.5473 44.7965 20.4391 44.7896 20.3344 44.7792C20.1703 44.7618 20.0063 44.741 19.8457 44.7132C19.6747 44.6611 19.5072 44.6021 19.3396 44.5396C19.214 44.491 19.0883 44.439 18.9662 44.3869C18.9069 44.3591 18.8405 44.3279 18.7812 44.2966C18.7219 44.2689 18.659 44.2376 18.5997 44.2064C18.5753 44.196 18.5508 44.1821 18.5264 44.1716C16.4986 43.1406 14.9768 41.3562 14.359 39.2072C14.1426 38.4504 14.0344 37.6485 14.0554 36.8188C14.1042 34.9892 14.7848 33.3055 15.8912 31.9585C15.8912 31.9585 15.8912 31.9585 15.8912 31.9515C15.9017 31.9446 15.9052 31.9411 15.9157 31.9307L17.584 30.3858L22.6415 25.6991L23.3989 24.9979L33.7545 16.4438L34.7667 15.5064L37.5799 12.9027L36.2117 11.5731C35.4368 10.8198 35.8487 9.53872 36.9342 9.31307L46.9059 7.24398L48.6825 6.87252C49.7191 6.65728 50.6126 7.57378 50.3159 8.54584L50.3124 8.54931Z" fill="url(#paint1_linear_290_135)"/>
</g>
<path d="M50.3091 0.044227L42.9097 1.76962L38.8714 2.71391C37.8138 2.96039 37.4439 4.27267 38.2222 5.02601L39.6009 6.36605L35.95 10.0425L20.9767 25.0399L16.1496 29.9002L14.5581 31.5006L14.5336 31.5249C14.5336 31.5249 14.5336 31.5249 14.5336 31.5319C13.49 32.924 12.8723 34.6494 12.8723 36.5206C12.8723 37.3677 13.0014 38.1835 13.2352 38.9542C13.9019 41.1378 15.4411 42.9396 17.455 43.9568C17.4794 43.9672 17.5039 43.9811 17.5283 43.9915C17.5876 44.0228 17.6505 44.0505 17.7098 44.0818C17.7691 44.1096 17.832 44.1408 17.8913 44.1651C18.0134 44.2206 18.1391 44.2727 18.2647 44.3179C18.3904 44.3665 18.516 44.4116 18.6487 44.4532C18.7394 44.481 18.8302 44.5123 18.9209 44.5366C18.9628 44.547 18.9977 44.5609 19.0396 44.5713C19.1373 44.5991 19.2385 44.6234 19.3432 44.6477C19.4654 44.6754 19.5911 44.7032 19.7167 44.724C19.9366 44.7657 20.16 44.7969 20.3868 44.8178C20.4915 44.8282 20.5997 44.8386 20.7079 44.8421C18.4044 42.6029 18.8023 39.0202 20.5823 37.201L21.1407 36.6386L21.1966 36.5831L24.453 33.3059L27.158 30.5806L32.6657 25.033L45.5448 12.1394L46.7629 13.3232C47.1713 13.7224 47.7367 13.7988 48.2079 13.6252C48.6058 13.4794 48.9374 13.1531 49.0595 12.6914L51.9216 1.84947L51.953 1.72102C52.2183 0.724665 51.3178 -0.198787 50.3056 0.0372837L50.3091 0.044227Z" fill="url(#paint2_linear_290_135)"/>
<path d="M26.6169 10.0811H43.2132C45.9601 10.0811 48.1869 12.2994 48.1869 15.0281V18.4199H26.6169V10.0811Z" fill="#00507D"/>
<defs>
<linearGradient id="paint0_linear_290_135" x1="30.4005" y1="26.0285" x2="53.4825" y2="59.1218" gradientUnits="userSpaceOnUse">
<stop stop-color="#0F2F50"/>
<stop offset="1" stop-color="#0077B7"/>
</linearGradient>
<linearGradient id="paint1_linear_290_135" x1="17.1547" y1="37.0722" x2="47.9272" y2="11.046" gradientUnits="userSpaceOnUse">
<stop stop-color="#0F2F50"/>
<stop offset="1" stop-color="#0F2F50" stop-opacity="0.4"/>
</linearGradient>
<linearGradient id="paint2_linear_290_135" x1="12.8024" y1="39.7909" x2="52.6554" y2="1.50757" gradientUnits="userSpaceOnUse">
<stop offset="0.26" stop-color="#E31E25"/>
<stop offset="0.39" stop-color="#E73D23"/>
<stop offset="0.67" stop-color="#F28720"/>
<stop offset="1" stop-color="#FCB614"/>
</linearGradient>
</defs>
</svg>
