<svg width="16" height="16" viewBox="0 0 16 16" fill="none" xmlns="http://www.w3.org/2000/svg">
<path d="M13.5619 8.52287L8.37594 2.54631C8.32906 2.49223 8.2711 2.44886 8.206 2.41913C8.1409 2.38941 8.07016 2.37402 7.99859 2.37402C7.92702 2.37402 7.85629 2.38941 7.79119 2.41913C7.72608 2.44886 7.66813 2.49223 7.62125 2.54631L2.43687 8.52287C2.42121 8.54089 2.41105 8.56302 2.40761 8.58665C2.40417 8.61027 2.40759 8.63439 2.41747 8.65612C2.42735 8.67786 2.44327 8.69629 2.46333 8.70923C2.48339 8.72218 2.50675 8.72908 2.53062 8.72912H3.79625C3.86812 8.72912 3.93687 8.69787 3.98531 8.64318L7.40562 4.701V13.4994C7.40562 13.5682 7.46187 13.6244 7.53062 13.6244H8.46812C8.53687 13.6244 8.59312 13.5682 8.59312 13.4994V4.701L12.0134 8.64318C12.0603 8.69787 12.1291 8.72912 12.2025 8.72912H13.4681C13.5744 8.72912 13.6322 8.60412 13.5619 8.52287Z" fill="#52C41A"/>
</svg>
