<svg width="16" height="13" viewBox="0 0 16 13" fill="none" xmlns="http://www.w3.org/2000/svg">
<g clip-path="url(#clip0_14_1260)">
<path d="M15.8651 6.90514L11.5575 12.2736C11.3282 12.5454 10.9365 12.5693 10.6873 12.3575C10.4381 12.1456 10.3992 11.7202 10.6056 11.4644L14.0767 7.13214H0.615394C0.275517 7.13214 9.53674e-06 6.84938 9.53674e-06 6.50056C9.53674e-06 6.15174 0.275517 5.86898 0.615394 5.86898H14.0767L10.6056 1.53672C10.3992 1.28096 10.4407 0.858639 10.6873 0.64365C10.9473 0.417008 11.3511 0.471754 11.5575 0.727512L15.8651 6.09593C16.0574 6.40301 16.0321 6.6341 15.8651 6.90514Z" fill="#1677FF"/>
</g>
<defs>
<clipPath id="clip0_14_1260">
<rect width="16" height="12" fill="white" transform="matrix(-1 0 0 1 16 0.5)"/>
</clipPath>
</defs>
</svg>
