<?xml version="1.0" encoding="UTF-8"?>
<svg version="1.1" xmlns="http://www.w3.org/2000/svg" width="960" height="224">
<path d="M0 0 C1.20970459 0.00523682 2.41940918 0.01047363 3.66577148 0.01586914 C4.97094727 0.0190918 6.27612305 0.02231445 7.62084961 0.02563477 C9.00952213 0.03399138 10.39819401 0.04245634 11.78686523 0.05102539 C13.17944179 0.05603873 14.57202005 0.06060193 15.96459961 0.06469727 C19.38453974 0.07653097 22.80445773 0.09446708 26.22436523 0.11352539 C28.20436523 10.50852539 28.20436523 10.50852539 30.22436523 21.11352539 C32.57561523 21.70133789 32.57561523 21.70133789 34.97436523 22.30102539 C42.17800838 24.26480925 49.56215357 26.69404621 55.82592773 30.83227539 C58.04944725 32.27610768 58.04944725 32.27610768 60.11499023 32.05493164 C63.23851164 30.66091561 66.09540495 28.88280342 68.97436523 27.05102539 C69.57635742 26.67397461 70.17834961 26.29692383 70.79858398 25.90844727 C72.27685667 24.98159376 73.75102613 24.0482015 75.22436523 23.11352539 C80.29060292 27.35169076 85.02474592 31.78761502 89.66186523 36.48852539 C90.29801758 37.12918945 90.93416992 37.76985352 91.58959961 38.42993164 C93.13686855 39.98883418 94.68173015 41.55003955 96.22436523 43.11352539 C94.00376479 47.16599973 91.9350834 50.59116765 88.78686523 53.98852539 C87.20780138 55.97104785 87.20780138 55.97104785 86.22436523 58.11352539 C86.7005848 61.85075584 86.7005848 61.85075584 87.95092773 64.27758789 C89.02769926 66.67555147 89.70873762 68.80057052 90.37280273 71.32446289 C92.56020531 79.52143939 92.56020531 79.52143939 98.30932617 85.27172852 C103.63912684 87.12500076 108.4949293 87.48621489 114.22436523 88.11352539 C114.22436523 98.01352539 114.22436523 107.91352539 114.22436523 118.11352539 C105.97436523 119.11352539 105.97436523 119.11352539 103.39526367 119.36743164 C100.25984305 119.8367793 97.98838061 120.18204676 95.91894531 122.70507812 C94.84951217 124.80204157 94.02471713 126.90034127 93.22436523 129.11352539 C92.57550736 130.60593122 91.92312428 132.09680902 91.26733398 133.58618164 C90.64478901 135.11448388 90.02631399 136.64445015 89.41186523 138.17602539 C89.08766602 138.93979492 88.7634668 139.70356445 88.42944336 140.49047852 C86.46165066 145.4162808 85.76108471 148.82910185 87.22436523 154.11352539 C88.65789619 156.56990006 90.29323114 158.66687034 92.04467773 160.90258789 C93.22436523 163.11352539 93.22436523 163.11352539 93.05029297 165.47509766 C92.03211295 168.72767568 90.62557712 170.17108867 88.18920898 172.53930664 C87.38032227 173.33530273 86.57143555 174.13129883 85.73803711 174.95141602 C84.88790039 175.76803711 84.03776367 176.5846582 83.16186523 177.42602539 C82.30786133 178.26198242 81.45385742 179.09793945 80.57397461 179.95922852 C78.46615211 182.01994883 76.34956674 184.07075748 74.22436523 186.11352539 C63.44039426 179.30935323 63.44039426 179.30935323 61.17749023 177.25805664 C60.53295898 176.88036133 59.88842773 176.50266602 59.22436523 176.11352539 C56.68749283 176.71183225 56.68749283 176.71183225 54.22436523 178.11352539 C53.45479492 178.4809082 52.68522461 178.84829102 51.89233398 179.22680664 C51.0737793 179.62254883 50.25522461 180.01829102 49.41186523 180.42602539 C45.99815008 182.01629434 42.63437863 183.33512292 39.02124023 184.37524414 C38.3004126 184.5830249 37.57958496 184.79080566 36.83691406 185.00488281 C35.4069002 185.40504271 33.97173477 185.7873038 32.53173828 186.14990234 C28.56141668 187.24619748 28.56141668 187.24619748 25.88452148 190.20727539 C24.98373756 194.17285669 24.10653493 198.14376175 23.22436523 202.11352539 C13.32436523 202.11352539 3.42436523 202.11352539 -6.77563477 202.11352539 C-8.02563477 194.80102539 -8.02563477 194.80102539 -8.38989258 192.51074219 C-8.95158755 189.48900132 -9.45056278 187.4605044 -11.57250977 185.19555664 C-14.99067351 183.44299472 -14.99067351 183.44299472 -18.77563477 183.11352539 C-21.74425846 184.80976534 -24.28436537 186.98639257 -26.90063477 189.17602539 C-28.51464547 190.48043183 -30.13059269 191.78244509 -31.74829102 193.08227539 C-32.5786084 193.75387695 -33.40892578 194.42547852 -34.2644043 195.11743164 C-38.20627548 198.25069421 -42.26696508 201.21391727 -46.33813477 204.17602539 C-53.49470835 209.39862985 -60.55404358 214.73131571 -67.52197266 220.20361328 C-68.18447021 220.71786865 -68.84696777 221.23212402 -69.52954102 221.76196289 C-70.11034424 222.21748535 -70.69114746 222.67300781 -71.28955078 223.14233398 C-72.77563477 224.11352539 -72.77563477 224.11352539 -74.77563477 224.11352539 C-73.51491622 220.51349449 -72.17509553 218.13473609 -69.49369812 215.43045044 C-68.81662811 214.74058548 -68.13955811 214.05072052 -67.44197083 213.33995056 C-66.69960678 212.59894608 -65.95724274 211.85794159 -65.19238281 211.09448242 C-64.41008301 210.30210678 -63.6277832 209.50973114 -62.82177734 208.69334412 C-60.23491256 206.07799329 -57.6368848 203.47409533 -55.03735352 200.87133789 C-53.23592521 199.0602721 -51.43472485 197.24897954 -49.63374329 195.43746948 C-45.85866258 191.64442793 -42.07749974 187.85757674 -38.29248047 184.07446289 C-33.91612222 179.69991013 -29.55680631 175.30886794 -25.20507592 170.90982735 C-21.01613654 166.67697793 -16.81073929 162.46075603 -12.59888649 158.25069809 C-10.8090293 156.45729173 -9.02405555 154.65899818 -7.24402428 152.85583878 C-4.75898472 150.34154067 -2.25582046 147.84680986 0.25292969 145.35620117 C1.35736671 144.22647636 1.35736671 144.22647636 2.4841156 143.07392883 C3.16964508 142.40098282 3.85517456 141.7280368 4.56147766 141.03469849 C5.44665054 140.14707416 5.44665054 140.14707416 6.3497057 139.24151802 C8.22436523 138.11352539 8.22436523 138.11352539 13.22436523 139.11352539 C13.71936523 153.46852539 13.71936523 153.46852539 14.22436523 168.11352539 C30.49745669 158.34967052 53.03319462 143.10321588 58.83800507 124.10520172 C61.47363843 112.89338444 61.18654607 101.1726571 60.72436523 89.73852539 C60.69334843 88.96061268 60.66233162 88.18269997 60.63037491 87.38121414 C61.1220277 71.19412856 61.1220277 71.19412856 57.22436523 57.11352539 C55.04869821 56.8978849 52.86600529 56.75295158 50.68286133 56.63500977 C49.99789581 56.59791901 49.3129303 56.56082825 48.60720825 56.52261353 C42.20437837 56.19398171 35.79783072 55.99674694 29.38870811 55.83971405 C25.09346204 55.73193245 20.80977592 55.58214071 16.52075195 55.32348633 C-5.04296359 53.55678654 -5.04296359 53.55678654 -24.0246582 62.09399414 C-29.12346111 66.71116268 -33.4051721 71.96970424 -37.58988953 77.41532898 C-40.61292124 81.1471149 -44.06977509 84.09143908 -47.77563477 87.11352539 C-49.80247412 88.96665358 -51.75378538 90.87465243 -53.71313477 92.80102539 C-54.6502832 93.71239258 -55.58743164 94.62375977 -56.55297852 95.56274414 C-59.09031898 98.08457059 -59.09031898 98.08457059 -59.77563477 102.11352539 C-47.89563477 102.11352539 -36.01563477 102.11352539 -23.77563477 102.11352539 C-23.44563477 103.43352539 -23.11563477 104.75352539 -22.77563477 106.11352539 C-23.89804077 107.85955048 -23.89804077 107.85955048 -25.68334961 109.6427002 C-26.3534053 110.32396469 -27.023461 111.00522919 -27.71382141 111.70713806 C-28.46382919 112.4438826 -29.21383698 113.18062714 -29.98657227 113.93969727 C-30.76522141 114.72389542 -31.54387054 115.50809357 -32.34611511 116.3160553 C-34.93546496 118.9172595 -37.54251293 121.49990355 -40.15063477 124.08227539 C-41.9522099 125.88214028 -43.75289856 127.68289289 -45.55273438 129.48449707 C-49.33493888 133.26504477 -53.12525311 137.03718018 -56.92260742 140.80249023 C-61.30320907 145.14630299 -65.66970323 149.50389528 -70.02845001 153.86963034 C-74.22709935 158.07460551 -78.43438005 162.27085247 -82.64581299 166.46302795 C-84.43386238 168.24405462 -86.2199717 170.02703125 -88.00408936 171.81199646 C-90.50521576 174.31131954 -93.01592736 176.80059747 -95.52954102 179.28735352 C-96.26335495 180.02409805 -96.99716888 180.76084259 -97.7532196 181.51991272 C-101.83465628 185.53446735 -105.66087477 188.52434811 -110.77563477 191.11352539 C-109.18319089 185.95320094 -105.97210876 182.26025547 -102.65063477 178.11352539 C-101.3801171 176.50362629 -100.11062722 174.89291565 -98.84204102 173.28149414 C-98.1770459 172.43893066 -97.51205078 171.59636719 -96.8269043 170.72827148 C-91.34614011 163.74196056 -85.99838276 156.65320623 -80.64575195 149.56860352 C-78.87882823 147.24899713 -77.0858486 144.95248342 -75.28344727 142.66040039 C-74.2596263 141.33257098 -73.23616317 140.00446553 -72.21313477 138.67602539 C-71.74174072 138.09183838 -71.27034668 137.50765137 -70.78466797 136.90576172 C-68.65689814 134.10342345 -67.75711407 132.57364894 -67.90063477 129.00805664 C-68.18938477 128.05286133 -68.47813477 127.09766602 -68.77563477 126.11352539 C-69.02442383 125.27047852 -69.27321289 124.42743164 -69.52954102 123.55883789 C-69.79637695 122.79313477 -70.06321289 122.02743164 -70.33813477 121.23852539 C-70.60754883 120.45735352 -70.87696289 119.67618164 -71.15454102 118.87133789 C-71.35950195 118.29125977 -71.56446289 117.71118164 -71.77563477 117.11352539 C-72.73663086 117.04004883 -72.73663086 117.04004883 -73.71704102 116.96508789 C-74.58200195 116.89032227 -75.44696289 116.81555664 -76.33813477 116.73852539 C-77.18504883 116.66891602 -78.03196289 116.59930664 -78.90454102 116.52758789 C-82.30841947 116.03668841 -85.48885041 115.11296785 -88.77563477 114.11352539 C-88.8625373 109.67614827 -88.91599403 105.23898905 -88.96313477 100.80102539 C-88.98827148 99.53838867 -89.0134082 98.27575195 -89.03930664 96.97485352 C-89.04897461 95.76635742 -89.05864258 94.55786133 -89.06860352 93.31274414 C-89.08431396 92.19730225 -89.10002441 91.08186035 -89.11621094 89.93261719 C-88.77563477 87.11352539 -88.77563477 87.11352539 -87.47192383 85.2722168 C-84.27348064 83.08744257 -80.09705791 83.00965369 -76.31274414 82.56079102 C-72.64228278 81.98239324 -71.01511604 81.39292021 -68.57250977 78.54321289 C-67.97954102 77.41141602 -67.38657227 76.27961914 -66.77563477 75.11352539 C-66.42364014 74.45296143 -66.07164551 73.79239746 -65.70898438 73.11181641 C-64.57938533 70.9453633 -63.51629704 68.75554241 -62.46313477 66.55102539 C-62.09124023 65.80916992 -61.7193457 65.06731445 -61.33618164 64.30297852 C-59.86655248 61.22961995 -58.7708685 58.91664128 -58.79125977 55.48071289 C-60.1156981 52.29575403 -61.87575505 49.63557387 -63.83813477 46.80102539 C-64.57161133 45.73239258 -65.30508789 44.66375977 -66.06079102 43.56274414 C-66.62668945 42.75450195 -67.19258789 41.94625977 -67.77563477 41.11352539 C-63.94986448 36.43758393 -59.87637613 32.05160731 -55.65063477 27.73852539 C-55.13597656 27.20259766 -54.62131836 26.66666992 -54.09106445 26.11450195 C-52.11797848 24.12356 -50.25339364 22.36585629 -47.76391602 21.05102539 C-44.59438867 21.1506569 -42.67826576 22.73871727 -40.08813477 24.48852539 C-39.11489258 25.13563477 -38.14165039 25.78274414 -37.13891602 26.44946289 C-34.77563477 28.11352539 -34.77563477 28.11352539 -33.77563477 29.11352539 C-27.63910346 29.68380513 -23.11847136 28.10111601 -17.52563477 25.67602539 C-16.72383789 25.36987305 -15.92204102 25.0637207 -15.09594727 24.74829102 C-11.77423771 23.31795622 -9.41586555 22.24984845 -7.60229492 19.03100586 C-6.80884419 16.73168693 -6.23913469 14.49997324 -5.77563477 12.11352539 C-5.54618164 11.04102539 -5.31672852 9.96852539 -5.08032227 8.86352539 C-4.93852539 7.95602539 -4.79672852 7.04852539 -4.65063477 6.11352539 C-3.70666406 0.15160514 -3.70666406 0.15160514 0 0 Z " fill="#C89B67" transform="translate(110.775634765625,-0.113525390625)"/>
<path d="M0 0 C1.21490112 0.01522705 1.21490112 0.01522705 2.4543457 0.03076172 C3.07140381 0.04381348 3.68846191 0.05686523 4.32421875 0.0703125 C4.32786438 0.65024963 4.33151001 1.23018677 4.33526611 1.82769775 C4.37706943 7.86259059 4.44639934 13.89672135 4.53173828 19.93115234 C4.55996786 22.18335346 4.58117245 24.43565402 4.59521484 26.68798828 C4.61661635 29.92532333 4.6632537 33.16146024 4.71484375 36.3984375 C4.71607239 37.40585999 4.71730103 38.41328247 4.71856689 39.45123291 C4.76959173 44.90321974 4.76959173 44.90321974 7.12011719 49.67871094 C10.37259609 51.73222553 13.5479361 52.25186455 17.32421875 52.0703125 C21.21315726 50.77399966 22.81971419 50.05638959 24.69921875 46.3828125 C24.90546875 45.6196875 25.11171875 44.8565625 25.32421875 44.0703125 C26.64421875 44.4003125 27.96421875 44.7303125 29.32421875 45.0703125 C29.65421875 30.2203125 29.98421875 15.3703125 30.32421875 0.0703125 C35.93421875 0.0703125 41.54421875 0.0703125 47.32421875 0.0703125 C47.41491921 8.89407206 47.4881636 17.71751735 47.53146744 26.54163933 C47.55226076 30.63991621 47.58042521 34.73785509 47.62597656 38.8359375 C47.66973195 42.79765222 47.6934178 46.75904371 47.70372772 50.7209816 C47.71106627 52.22553717 47.72539558 53.7300769 47.74713898 55.23449326 C47.91130014 67.07348461 46.61261583 76.51572927 38.24609375 85.3828125 C30.30340746 92.35687851 20.24989935 93.49354943 10.05078125 93.3125 C1.77387213 92.77458767 -4.08211533 90.6946646 -10.11328125 84.89453125 C-13.91450013 80.45660821 -14.09380979 75.7136978 -13.67578125 70.0703125 C-13.05351556 68.71568796 -12.39440223 67.37637762 -11.67578125 66.0703125 C-10.74765625 66.9778125 -9.81953125 67.8853125 -8.86328125 68.8203125 C-2.70738727 74.06836757 5.08546964 76.82642804 13.19140625 76.390625 C18.26938919 75.62799753 22.05513185 74.30685871 25.76171875 70.6953125 C27.32723262 68.0652492 27.97874848 66.09317736 28.32421875 63.0703125 C27.793125 63.41964844 27.26203125 63.76898438 26.71484375 64.12890625 C26.0084375 64.58394531 25.30203125 65.03898437 24.57421875 65.5078125 C23.878125 65.96027344 23.18203125 66.41273438 22.46484375 66.87890625 C16.85406174 70.00169551 10.05182822 69.82776274 3.8828125 68.57421875 C-1.8676732 66.85199207 -6.61909033 64.37947546 -9.89453125 59.109375 C-12.30356509 54.48058855 -13.77715221 50.29162986 -13.8527832 45.03955078 C-13.86561844 44.25838898 -13.87845367 43.47722717 -13.89167786 42.6723938 C-13.89906479 41.8369101 -13.90645172 41.00142639 -13.9140625 40.140625 C-13.92213425 39.27267303 -13.93020599 38.40472107 -13.93852234 37.51046753 C-13.95233213 35.67643209 -13.96306813 33.84237129 -13.97094727 32.00830078 C-13.98248166 30.13647918 -14.0029565 28.26469085 -14.0324707 26.39306641 C-14.07518498 23.68369267 -14.09131987 20.97529379 -14.1015625 18.265625 C-14.11907059 17.43418976 -14.13657867 16.60275452 -14.15461731 15.74612427 C-14.13462671 10.3653148 -13.2294416 7.35213812 -9.67578125 3.0703125 C-6.44009915 0.2968707 -4.12748428 -0.06711357 0 0 Z " fill="#C09767" transform="translate(912.67578125,82.9296875)"/>
<path d="M0 0 C0.78900696 -0.0033284 1.57801392 -0.0066568 2.39093018 -0.01008606 C4.07230038 -0.01516513 5.75368073 -0.01749409 7.43505859 -0.01733398 C9.96339623 -0.01948678 12.49127294 -0.03753602 15.01953125 -0.05664062 C43.96439214 -0.16034079 43.96439214 -0.16034079 54.33203125 8.9921875 C63.41330524 18.64222604 63.4713839 29.9894221 63.50585938 42.63330078 C63.51550466 44.76635659 63.54654948 46.89842206 63.578125 49.03125 C63.6723304 61.07665859 62.67276501 72.84159703 54.265625 82.16796875 C42.89915862 92.31387498 26.14646438 90.53996567 12.015625 90.35546875 C9.99870792 90.34039294 7.98177993 90.32670966 5.96484375 90.31445312 C1.06483072 90.28168116 -3.83464936 90.23005911 -8.734375 90.16796875 C-8.75749728 78.58108473 -8.7752895 66.99420616 -8.78618717 55.40730381 C-8.79141625 50.02763113 -8.79851435 44.64797417 -8.80981445 39.26831055 C-8.82064245 34.08122032 -8.82665165 28.89414526 -8.82925224 23.7070446 C-8.83110665 21.72340595 -8.83472756 19.73976817 -8.84010506 17.75613594 C-8.84731432 14.98787739 -8.84836599 12.21968237 -8.84790039 9.45141602 C-8.85149567 8.62279556 -8.85509094 7.79417511 -8.85879517 6.94044495 C-8.84461806 -0.79682637 -7.05352238 0.01028224 0 0 Z M5.265625 13.16796875 C5.265625 34.28796875 5.265625 55.40796875 5.265625 77.16796875 C26.33639633 79.21202266 26.33639633 79.21202266 43.515625 72.48046875 C49.21078087 64.95472707 48.73142972 56.46732413 48.65673828 47.47753906 C48.64066168 45.17322582 48.65663636 42.87066599 48.67578125 40.56640625 C48.81728968 27.89939031 48.81728968 27.89939031 42.515625 17.29296875 C31.24684104 9.9249177 18.6581578 13.16796875 5.265625 13.16796875 Z " fill="#0F2F50" transform="translate(290.734375,60.83203125)"/>
<path d="M0 0 C3.7898913 3.02714588 5.95423209 5.83797402 6.73828125 10.73828125 C6.58960438 13.47393569 6.20553875 16.02818773 5.73828125 18.73828125 C1.73828125 16.73828125 1.73828125 16.73828125 -0.0390625 15.69140625 C-4.98163109 13.57192165 -11.35610846 13.87640395 -16.4609375 15.390625 C-21.80131966 18.08977694 -23.98063169 22.3220491 -26.01171875 27.73828125 C-26.79809424 34.02928514 -26.22859734 39.14460105 -23.26171875 44.73828125 C-20.01374893 48.55464579 -17.84947347 50.49047428 -12.7734375 50.9765625 C-8.23240142 51.09589816 -5.00916687 51.0780304 -0.82421875 49.17578125 C5.06792042 43.5710635 6.78938384 37.61309573 7.00404358 29.64385986 C7.02075607 28.85517517 7.03746857 28.06649048 7.0546875 27.25390625 C7.0754686 26.43831238 7.09624969 25.62271851 7.11766052 24.78240967 C7.18289422 22.1844502 7.24191893 19.58639212 7.30078125 16.98828125 C7.34399139 15.22394825 7.38760647 13.45962512 7.43164062 11.6953125 C7.53930868 7.37640157 7.63857635 3.05741271 7.73828125 -1.26171875 C13.67828125 -1.26171875 19.61828125 -1.26171875 25.73828125 -1.26171875 C25.73828125 21.17828125 25.73828125 43.61828125 25.73828125 66.73828125 C19.79828125 66.73828125 13.85828125 66.73828125 7.73828125 66.73828125 C7.40828125 65.08828125 7.07828125 63.43828125 6.73828125 61.73828125 C6.01125 62.24488281 6.01125 62.24488281 5.26953125 62.76171875 C-2.18632974 67.72273395 -9.54723443 70.06998731 -18.60546875 68.2734375 C-27.55607873 65.93909632 -34.77357408 61.5653304 -40.046875 53.8671875 C-45.34266625 44.58678161 -46.12049822 34.17675241 -44.109375 23.828125 C-41.58673162 14.63268302 -37.34062471 7.00649315 -29.26171875 1.73828125 C-20.1452942 -3.30748175 -9.57037146 -5.33891189 0 0 Z " fill="#C19767" transform="translate(608.26171875,84.26171875)"/>
<path d="M0 0 C0.92361328 0.00684814 1.84722656 0.01369629 2.79882812 0.02075195 C11.05057248 0.2156578 17.06575352 1.53594441 23.5 6.875 C27.94177491 12.39356883 29.66302493 16.57934049 29.73950195 23.61401367 C29.75875481 25.16163643 29.75875481 25.16163643 29.77839661 26.74052429 C29.78578354 27.85095596 29.79317047 28.96138763 29.80078125 30.10546875 C29.808853 31.25485428 29.81692474 32.40423981 29.82524109 33.5884552 C29.83906886 36.02192685 29.84979685 38.4554178 29.85766602 40.88891602 C29.8748545 44.5936401 29.91875143 48.29746605 29.96289062 52.00195312 C29.97302023 54.36978513 29.98153549 56.73762469 29.98828125 59.10546875 C30.00578934 60.20577927 30.02329742 61.30608978 30.04133606 62.43974304 C30.02033935 69.95768458 29.00563263 76.41983076 23.9813385 82.28250122 C17.00969115 89.19165132 7.79639236 89.75220538 -1.53994751 89.72406006 C-3.71438788 89.70092739 -5.88828076 89.66338562 -8.0625 89.625 C-9.55858021 89.6099192 -11.0546752 89.59623683 -12.55078125 89.58398438 C-16.17999968 89.55126305 -19.80865248 89.49967056 -23.4375 89.4375 C-23.29581863 87.99958484 -23.14898957 86.5621763 -23 85.125 C-22.91878906 84.32449219 -22.83757812 83.52398437 -22.75390625 82.69921875 C-22.4375 80.4375 -22.4375 80.4375 -21.4375 77.4375 C-20.5904248 77.4281543 -19.74334961 77.41880859 -18.87060547 77.40917969 C-15.70555648 77.36497388 -12.54145188 77.30327473 -9.37695312 77.22998047 C-8.01151836 77.20188377 -6.64592436 77.18061323 -5.28027344 77.16650391 C-3.30895962 77.14492018 -1.33800369 77.0961454 0.6328125 77.046875 C2.40809326 77.0154541 2.40809326 77.0154541 4.21923828 76.98339844 C8.22185184 76.32983893 10.43247421 74.97962933 13.5625 72.4375 C14.69758831 69.6680403 14.69758831 69.6680403 14.9375 66.6875 C15.13472656 65.21023437 15.13472656 65.21023437 15.3359375 63.703125 C15.41070312 62.95546875 15.48546875 62.2078125 15.5625 61.4375 C14.675625 61.911875 13.78875 62.38625 12.875 62.875 C4.10897403 67.00991791 -7.36258474 66.63742348 -16.4375 63.4375 C-22.86015922 60.77302725 -25.64729075 57.18575058 -28.52734375 50.9375 C-30.66573883 45.06379677 -30.62067114 39.36045643 -30.625 33.1875 C-30.63724609 32.28386719 -30.64949219 31.38023438 -30.66210938 30.44921875 C-30.68057601 21.89301328 -30.00069368 14.2722808 -24.4375 7.4375 C-17.78755859 0.78755859 -8.98788236 -0.10213503 0 0 Z M-12.4375 13.4375 C-16.99704678 18.90895613 -16.61896453 26.02863094 -16.625 32.8125 C-16.64336914 33.88757813 -16.64336914 33.88757813 -16.66210938 34.984375 C-16.67718869 40.55366992 -16.42204822 46.76267414 -13 51.375 C-9.1955493 53.96202648 -5.03464573 53.65551708 -0.625 53.6875 C0.07431641 53.708125 0.77363281 53.72875 1.49414062 53.75 C6.28372296 53.78584346 9.52665446 53.01947592 13.5625 50.4375 C16.71344312 45.71108532 15.93445426 40.65813701 15.93310547 35.09570312 C15.93747091 33.07596 15.97377576 31.05841791 16.01171875 29.0390625 C16.01558594 27.7603125 16.01945312 26.4815625 16.0234375 25.1640625 C16.03165527 23.99439941 16.03987305 22.82473633 16.04833984 21.61962891 C15.46219289 17.78051362 14.28850726 16.15736345 11.5625 13.4375 C4.14373844 10.32162014 -5.02782189 10.26192367 -12.4375 13.4375 Z " fill="#0F2F50" transform="translate(423.4375,83.5625)"/>
<path d="M0 0 C8.75562416 6.142005 13.62930717 15.10758268 15.60546875 25.52734375 C16.75701031 34.37004563 14.78849426 43.03108571 9.6171875 50.3359375 C2.47760487 58.63462335 -4.84595575 63.8186347 -15.97265625 64.86328125 C-28.67687678 64.99843253 -37.00174156 62.85207446 -46.234375 53.8828125 C-53.14245977 46.35012694 -57.1009447 37.1060873 -56.6796875 26.7578125 C-55.81473129 19.99219608 -53.88636446 14.84235556 -48.39453125 10.52734375 C-43.82162407 7.78359944 -38.56521656 7.89083082 -33.39453125 8.52734375 C-29.0816855 9.87057012 -26.18458331 11.51508954 -23.39453125 15.08984375 C-22.39453125 17.52734375 -22.39453125 17.52734375 -22.39453125 20.52734375 C-22.98621094 20.4809375 -23.57789063 20.43453125 -24.1875 20.38671875 C-28.13646899 20.2063417 -30.78120901 20.23346018 -34.39453125 21.96484375 C-37.28542209 25.66879764 -37.65328765 28.89255995 -37.39453125 33.52734375 C-36.49844067 37.99993622 -35.15337195 40.80551967 -31.83203125 43.96484375 C-26.31306914 47.50263998 -20.82591357 47.07926214 -14.39453125 46.52734375 C-10.44898099 45.29894908 -8.0192858 43.36034982 -5.51953125 40.02734375 C-2.88925944 34.18229527 -2.52804212 28.55270669 -4.58203125 22.40234375 C-6.17602004 18.57677065 -8.07311285 16.09389433 -11.39453125 13.52734375 C-16.16315989 11.67287706 -20.30437978 11.31958247 -25.39453125 11.52734375 C-25.39453125 10.86734375 -25.39453125 10.20734375 -25.39453125 9.52734375 C-33.09853109 6.40410057 -39.24028403 5.89649431 -47.39453125 7.52734375 C-45.2509252 2.30371427 -41.11663169 0.26846547 -36.39453125 -2.47265625 C-35.79769531 -2.81941406 -35.20085938 -3.16617188 -34.5859375 -3.5234375 C-23.62094896 -8.67624949 -9.85976562 -6.06383628 0 0 Z " fill="#C09867" transform="translate(821.39453125,87.47265625)"/>
<path d="M0 0 C0.86066574 0.00007553 1.72133148 0.00015106 2.608078 0.00022888 C3.53316666 0.00539017 4.45825531 0.01055145 5.41137695 0.01586914 C6.36156204 0.01728409 7.31174713 0.01869904 8.29072571 0.02015686 C11.3270685 0.02575664 14.36333768 0.03830907 17.3996582 0.05102539 C19.45759985 0.05604042 21.51554265 0.06060332 23.57348633 0.06469727 C28.61973867 0.07572599 33.66593595 0.09299046 38.7121582 0.11352539 C38.73900499 2.75942553 38.75892177 5.40505635 38.7746582 8.05102539 C38.78303711 8.80577148 38.79141602 9.56051758 38.80004883 10.33813477 C38.80868261 12.26346852 38.76440153 14.1888812 38.7121582 16.11352539 C37.7121582 17.11352539 37.7121582 17.11352539 34.47753906 17.22705078 C33.04401694 17.2268917 31.61048908 17.22119946 30.17700195 17.21118164 C29.04712608 17.20905922 29.04712608 17.20905922 27.89442444 17.20689392 C25.47946261 17.20127915 23.06459219 17.18872422 20.6496582 17.17602539 C19.016196 17.17101229 17.38273234 17.16644905 15.74926758 17.16235352 C11.7368339 17.15215414 7.72459885 17.13258184 3.7121582 17.11352539 C3.7121582 23.71352539 3.7121582 30.31352539 3.7121582 37.11352539 C15.2621582 37.11352539 26.8121582 37.11352539 38.7121582 37.11352539 C36.43125933 48.51801977 36.43125933 48.51801977 31.7121582 52.11352539 C28.41390376 54.13959598 25.91715612 54.34974877 22.0715332 54.30883789 C21.10699219 54.30384277 20.14245117 54.29884766 19.14868164 54.29370117 C17.93212891 54.27549316 16.71557617 54.25728516 15.4621582 54.23852539 C9.6459082 54.17665039 9.6459082 54.17665039 3.7121582 54.11352539 C3.7121582 66.32352539 3.7121582 78.53352539 3.7121582 91.11352539 C-2.5578418 91.11352539 -8.8278418 91.11352539 -15.2878418 91.11352539 C-15.35574633 81.08176219 -15.41073206 71.05015283 -15.44327831 61.01821136 C-15.45890259 56.35946582 -15.48008146 51.70088633 -15.51416016 47.04223633 C-15.54686943 42.54238768 -15.56471915 38.04269828 -15.57247353 33.54273987 C-15.57799633 31.83001704 -15.5887809 30.11730246 -15.60503197 28.40464783 C-15.62696047 25.99687181 -15.62980236 23.58974532 -15.62841797 21.18188477 C-15.6392038 20.48128937 -15.64998962 19.78069397 -15.66110229 19.05886841 C-15.62826475 13.74544142 -14.43332881 9.90071924 -12.2878418 5.11352539 C-8.44113246 1.36298379 -5.3205736 -0.01560286 0 0 Z " fill="#C19767" transform="translate(516.287841796875,59.886474609375)"/>
<path d="M0 0 C4.30545436 2.98569197 8.02903811 6.04389195 10 11 C10.66115702 17.94214876 10.66115702 17.94214876 8.125 22 C6 24 6 24 4 24 C3.46375 23.071875 2.9275 22.14375 2.375 21.1875 C-0.66630553 17.10574785 -3.09019238 15.99179753 -8 15 C-15.04555819 14.169301 -21.23578288 14.5544835 -27 19 C-31.32055809 24.4283935 -32.67442539 29.12086101 -32 36 C-30.99575095 40.37283248 -29.73747256 43.28096425 -26.5 46.4375 C-21.04720671 49.84549581 -15.24415375 49.6007034 -9 49 C-6.67534164 48.18821454 -4.72729903 47.23637942 -2.62109375 45.97265625 C-1 45 -1 45 2 44 C3.97265625 45.29296875 3.97265625 45.29296875 6.0625 47.1875 C6.75472656 47.79980469 7.44695313 48.41210938 8.16015625 49.04296875 C9.95438391 50.95147843 10.9756527 52.60631797 12 55 C5.31338267 62.43886178 -1.06669364 66.47786211 -11.1640625 67.23828125 C-22.5117591 67.48162915 -32.31268742 65.33379826 -40.7734375 57.3203125 C-48.39747941 49.31024315 -51.37327265 39.60874932 -51.2109375 28.68359375 C-50.42480068 18.68218644 -45.92054343 11.51466361 -38.75 4.75 C-28.19910585 -3.87400479 -12.27901245 -5.80462407 0 0 Z " fill="#C09867" transform="translate(695,85)"/>
<path d="M0 0 C0 5.61 0 11.22 0 17 C4.95 17 9.9 17 15 17 C14.42006721 26.71387422 14.42006721 26.71387422 10 31 C6.78548731 32.60725635 3.56387464 32.05748185 0 32 C0.11794522 37.10881026 0.24217047 42.21741364 0.37231445 47.32592773 C0.41572573 49.06514288 0.45739612 50.80440235 0.49731445 52.54370117 C0.55486768 55.03838488 0.6186042 57.5328441 0.68359375 60.02734375 C0.70030624 60.80963852 0.71701874 61.59193329 0.73423767 62.39793396 C0.50648731 65.99871781 0.50648731 65.99871781 2 69 C5.94836905 69.2632246 8.60379269 69.08997373 12 67 C13 68 13 68 13.3125 71.6875 C13.24876572 76.13296628 11.93122407 78.5934423 9 82 C4.88150012 85.41247133 0.24092533 86.15282287 -5 86 C-10.47473413 84.29475494 -14.3338765 82.09077444 -17.09326172 76.97192383 C-18.38602295 72.73477185 -18.24623185 68.72869259 -18.1953125 64.32421875 C-18.19106766 62.93648003 -18.19106766 62.93648003 -18.18673706 61.52070618 C-18.17557392 58.57617058 -18.15047637 55.63194312 -18.125 52.6875 C-18.11496521 50.68685336 -18.10584023 48.68620194 -18.09765625 46.68554688 C-18.07564722 41.7902465 -18.04114391 36.89517543 -18 32 C-20.64 32 -23.28 32 -26 32 C-26 27.05 -26 22.1 -26 17 C-23.36 17 -20.72 17 -18 17 C-17.97421875 16.40832031 -17.9484375 15.81664063 -17.921875 15.20703125 C-17.54715879 9.9865532 -17.07696947 6.64781479 -13 3 C-8.09310337 0.36481478 -5.75010622 0 0 0 Z " fill="#C19767" transform="translate(742,66)"/>
<path d="M0 0 C3.78162651 3.15135542 3.78162651 3.15135542 4.625 6.1875 C5.05688796 11.62928833 5.00272476 14.68386698 1.625 19.1875 C0.820625 18.506875 0.01625 17.82625 -0.8125 17.125 C-4.35050056 14.77751148 -7.1404881 14.83408408 -11.25390625 15.5 C-14.54847277 16.56785213 -16.28253463 18.50652875 -18.375 21.1875 C-19.52791684 23.49333369 -19.52897338 24.88616887 -19.58032227 27.45361328 C-19.60026749 28.33437531 -19.62021271 29.21513733 -19.64076233 30.12258911 C-19.66583107 31.55077469 -19.66583107 31.55077469 -19.69140625 33.0078125 C-19.71218735 33.98160858 -19.73296844 34.95540466 -19.75437927 35.95870972 C-19.81988598 39.07656647 -19.87876497 42.19450903 -19.9375 45.3125 C-19.98068415 47.42318604 -20.0242984 49.53386333 -20.06835938 51.64453125 C-20.17556853 56.82543236 -20.27683283 62.00641999 -20.375 67.1875 C-26.315 67.1875 -32.255 67.1875 -38.375 67.1875 C-38.375 44.7475 -38.375 22.3075 -38.375 -0.8125 C-32.435 -0.8125 -26.495 -0.8125 -20.375 -0.8125 C-20.045 -0.1525 -19.715 0.5075 -19.375 1.1875 C-18.7975 0.713125 -18.22 0.23875 -17.625 -0.25 C-11.97957383 -4.17043484 -5.80608506 -3.11808272 0 0 Z " fill="#C19767" transform="translate(885.375,83.8125)"/>
<path d="M0 0 C4.62 0 9.24 0 14 0 C14 21.45 14 42.9 14 65 C9.38 65 4.76 65 0 65 C0 43.55 0 22.1 0 0 Z " fill="#0F2F50" transform="translate(467,86)"/>
<path d="M0 0 C4.62 0 9.24 0 14 0 C14 21.45 14 42.9 14 65 C9.38 65 4.76 65 0 65 C0 43.55 0 22.1 0 0 Z " fill="#0F2F50" transform="translate(367,86)"/>
<path d="M0 0 C0.74945294 0.2252492 1.49890589 0.45049839 2.27106953 0.68257332 C2.58356953 2.87007332 2.58356953 2.87007332 2.27106953 5.68257332 C0.66244878 7.40533124 -1.01509522 9.06444963 -2.72893047 10.68257332 C-3.54265118 11.49629402 -4.35637188 12.31001472 -5.19475079 13.14839363 C-21.03947735 28.99312019 -36.88420391 44.83784676 -52.72893047 60.68257332 C-53.61549831 61.5760598 -54.50206615 62.46954628 -55.41549969 63.39010811 C-57.48513325 65.44098552 -59.56929884 67.24528038 -61.87346172 69.02241707 C-62.63336407 69.6108741 -63.39326641 70.19933113 -64.1761961 70.80562019 C-64.95672344 71.40438972 -65.73725079 72.00315926 -66.54143047 72.62007332 C-67.31035625 73.21497566 -68.07928204 73.80987801 -68.8715086 74.42280769 C-70.40136562 75.6040897 -71.93404031 76.78173254 -73.46965313 77.95552254 C-74.98977101 79.11754046 -76.50500809 80.28596828 -78.01555157 81.46040535 C-79.08603741 82.28387459 -79.08603741 82.28387459 -80.17814922 83.12397957 C-81.13274029 83.86370003 -81.13274029 83.86370003 -82.10661602 84.61836433 C-83.72893047 85.68257332 -83.72893047 85.68257332 -85.72893047 85.68257332 C-84.46821192 82.08254242 -83.12839124 79.70378402 -80.44699383 76.99949837 C-79.43138882 75.96470093 -79.43138882 75.96470093 -78.39526653 74.90899849 C-77.65290249 74.167994 -76.91053844 73.42698952 -76.14567852 72.66353035 C-75.36337872 71.87115471 -74.58107891 71.07877907 -73.77507305 70.26239204 C-71.18820827 67.64704122 -68.5901805 65.04314326 -65.99064922 62.44038582 C-64.18922091 60.62932003 -62.38802055 58.81802747 -60.58703899 57.00651741 C-56.81195829 53.21347586 -53.03079544 49.42662467 -49.24577618 45.64351082 C-44.86941793 41.26895805 -40.51010201 36.87791587 -36.15837163 32.47887528 C-31.96943225 28.24602586 -27.764035 24.02980396 -23.5521822 19.81974602 C-21.76232501 18.02633965 -19.97735126 16.2280461 -18.19731998 14.4248867 C-15.71228043 11.9105886 -13.20911617 9.41585779 -10.70036602 6.9252491 C-9.96407467 6.17209923 -9.22778332 5.41894936 -8.46918011 4.64297676 C-7.78365063 3.97003075 -7.09812115 3.29708473 -6.39181805 2.60374641 C-5.8017028 2.01199686 -5.21158754 1.42024731 -4.60359001 0.81056595 C-2.72893047 -0.31742668 -2.72893047 -0.31742668 0 0 Z " fill="#D6BD8D" transform="translate(121.72893047332764,138.31742668151855)"/>
<path d="M0 0 C1.99954746 -0.04254356 4.00041636 -0.04080783 6 0 C7.74031618 1.74031618 7.19065023 4.13913309 7.24047852 6.51025391 C7.26622452 7.68882965 7.29197052 8.8674054 7.3184967 10.08169556 C7.40247711 15.49627867 7.46861664 20.91067649 7.51489258 26.32568359 C7.54158585 29.18194455 7.59022753 32.03652459 7.65844727 34.89208984 C7.75642702 39.0038294 7.78851575 43.11374171 7.81640625 47.2265625 C7.85455948 48.49972321 7.89271271 49.77288391 7.93202209 51.08462524 C7.91301777 59.75927724 7.91301777 59.75927724 5.40386963 63.16902161 C3.3577884 64.95135908 1.23461317 66.46372009 -1 68 C-2.17621344 69.09301474 -3.32649348 70.21471925 -4.44677734 71.36499023 C-5.00029877 71.92504257 -5.55382019 72.48509491 -6.12411499 73.06211853 C-6.68901642 73.63845535 -7.25391785 74.21479218 -7.8359375 74.80859375 C-9.07669679 76.06197383 -10.31758576 77.31522554 -11.55859375 78.56835938 C-13.48284233 80.51760784 -15.40542733 82.46844905 -17.32568359 84.42163086 C-19.19979838 86.32575984 -21.07993322 88.22377397 -22.9609375 90.12109375 C-23.53798431 90.71160019 -24.11503113 91.30210663 -24.70956421 91.9105072 C-26.10221271 93.31195732 -27.54665957 94.66159278 -29 96 C-29.66 96 -30.32 96 -31 96 C-29.73354365 92.38446317 -27.69369726 90.93427101 -24.53031921 88.9119873 C-13.92814082 82.03486008 -3.12493289 73.16668016 -0.16070557 60.37939453 C3.0208198 40.71372797 1.32692758 19.76718362 0 0 Z " fill="#CDB286" transform="translate(170,62)"/>
<path d="M0 0 C1.2675918 4.08357104 1.31610479 7.91621214 0.125 12 C-2.7106492 14.66884631 -4.94767241 14.93026087 -8.7734375 15.1171875 C-12.14767891 14.93959585 -13.65922138 14.48707728 -16 12 C-17.3271334 7.68681646 -17.47776641 4.20698882 -15.8125 0 C-11.47285059 -4.78857866 -4.99588117 -3.33058745 0 0 Z " fill="#0F2F50" transform="translate(482,61)"/>
<path d="M0 0 C0.680625 0.06703125 1.36125 0.1340625 2.0625 0.203125 C4.54041965 0.90253781 5.49412911 1.66210539 7 3.75 C7.3984375 6.125 7.3984375 6.125 7.375 8.75 C7.38273437 9.61625 7.39046875 10.4825 7.3984375 11.375 C6.92745081 14.1824501 6.21268047 15.02302988 4 16.75 C0.50597461 18.4970127 -3.28688318 17.60687311 -7 16.75 C-9.39386981 14.93646226 -9.85397566 13.78063555 -10.26953125 10.84765625 C-10.43896582 7.47779095 -10.30463611 5.31575278 -8.6875 2.3125 C-5.93621887 -0.23498252 -3.55569792 -0.40405658 0 0 Z " fill="#0F2F50" transform="translate(375,58.25)"/>
</svg>
